<svg width="24" height="24" viewBox="0 0 24 24" fill="none" xmlns="http://www.w3.org/2000/svg">
<mask id="mask0_9_50" style="mask-type:alpha" maskUnits="userSpaceOnUse" x="0" y="0" width="24" height="24">
<rect width="24" height="24" fill="#D9D9D9"/>
</mask>
<g mask="url(#mask0_9_50)">
<path d="M7.274 22.4805C6.23183 22.4805 5.34558 22.1153 4.61525 21.3848C3.88475 20.6544 3.5195 19.7682 3.5195 18.726V5.274C3.5195 4.23183 3.88475 3.34558 4.61525 2.61525C5.34558 1.88475 6.23183 1.5195 7.274 1.5195H20.4805V17.4805C20.1345 17.4805 19.8404 17.6016 19.5983 17.8438C19.3559 18.0859 19.2348 18.38 19.2348 18.726C19.2348 19.072 19.3559 19.3662 19.5983 19.6085C19.8404 19.8507 20.1345 19.9718 20.4805 19.9718V22.4805H7.274ZM6.02825 15.1837C6.22208 15.1026 6.42275 15.0446 6.63025 15.0098C6.83792 14.9749 7.0525 14.9575 7.274 14.9575H8.02825V4.02825H7.274C6.928 4.02825 6.63383 4.14933 6.3915 4.3915C6.14933 4.63383 6.02825 4.928 6.02825 5.274V15.1837ZM10.537 14.9575H17.9718V4.02825H10.537V14.9575ZM7.274 19.9718H16.9523C16.8826 19.7753 16.8275 19.5752 16.787 19.3717C16.7463 19.1681 16.726 18.9513 16.726 18.7215C16.726 18.505 16.7434 18.2927 16.7783 18.0845C16.8131 17.8762 16.8711 17.6748 16.9523 17.4805H7.274C6.914 17.4805 6.61642 17.6016 6.38125 17.8438C6.14592 18.0859 6.02825 18.38 6.02825 18.726C6.02825 19.086 6.14592 19.3836 6.38125 19.6187C6.61642 19.8541 6.914 19.9718 7.274 19.9718Z" fill="#4B5563"/>
</g>
</svg>
