<svg width="25" height="25" viewBox="0 0 25 25" fill="none" xmlns="http://www.w3.org/2000/svg">
<mask id="mask0_5_56" style="mask-type:alpha" maskUnits="userSpaceOnUse" x="0" y="0" width="25" height="25">
<rect x="0.420654" y="0.441406" width="24" height="24" fill="#D9D9D9"/>
</mask>
<g mask="url(#mask0_5_56)">
<path d="M7.69462 22.9219C6.65246 22.9219 5.76621 22.5567 5.03587 21.8262C4.30537 21.0959 3.94012 20.2096 3.94012 19.1674V5.71544C3.94012 4.67327 4.30537 3.78702 5.03587 3.05669C5.76621 2.32619 6.65246 1.96094 7.69462 1.96094H20.9011V17.9219C20.5551 17.9219 20.261 18.043 20.0189 18.2852C19.7765 18.5274 19.6554 18.8214 19.6554 19.1674C19.6554 19.5134 19.7765 19.8076 20.0189 20.0499C20.261 20.2921 20.5551 20.4132 20.9011 20.4132V22.9219H7.69462ZM6.44887 15.6252C6.64271 15.544 6.84337 15.486 7.05087 15.4512C7.25854 15.4164 7.47312 15.3989 7.69462 15.3989H8.44887V4.46969H7.69462C7.34862 4.46969 7.05446 4.59077 6.81212 4.83294C6.56996 5.07527 6.44887 5.36944 6.44887 5.71544V15.6252ZM10.9576 15.3989H18.3924V4.46969H10.9576V15.3989ZM7.69462 20.4132H17.3729C17.3032 20.2167 17.2481 20.0167 17.2076 19.8132C17.167 19.6095 17.1466 19.3928 17.1466 19.1629C17.1466 18.9464 17.164 18.7341 17.1989 18.5259C17.2337 18.3176 17.2917 18.1163 17.3729 17.9219H7.69462C7.33462 17.9219 7.03704 18.043 6.80187 18.2852C6.56654 18.5274 6.44887 18.8214 6.44887 19.1674C6.44887 19.5274 6.56654 19.825 6.80187 20.0602C7.03704 20.2955 7.33462 20.4132 7.69462 20.4132Z" fill="#1C1B1F"/>
</g>
</svg>
