<svg width="21" height="21" viewBox="0 0 21 21" fill="none" xmlns="http://www.w3.org/2000/svg">
<mask id="mask0_5_44" style="mask-type:alpha" maskUnits="userSpaceOnUse" x="0" y="0" width="21" height="21">
<rect x="0.420654" y="0.441406" width="20" height="20" fill="#D9D9D9"/>
</mask>
<g mask="url(#mask0_5_44)">
<path d="M7.09087 18.6107C6.30489 18.6107 5.6351 18.334 5.08149 17.7805C4.52802 17.2269 4.25128 16.5571 4.25128 15.7711V5.11156C4.25128 4.32558 4.52802 3.65579 5.08149 3.10218C5.6351 2.54871 6.30489 2.27197 7.09087 2.27197H16.59V14.5899C16.2677 14.5899 15.9937 14.7056 15.7682 14.937C15.5426 15.1682 15.4298 15.4491 15.4298 15.7797C15.4298 16.1101 15.5426 16.3882 15.7682 16.6138C15.9937 16.8394 16.2677 16.9522 16.59 16.9522V18.6107H7.09087ZM5.93066 13.1832C6.11107 13.0985 6.29455 13.0345 6.48107 12.9913C6.66746 12.948 6.87073 12.9263 7.09087 12.9263H7.43066V3.95135H7.09087C6.76864 3.95135 6.49468 4.06412 6.26899 4.28968C6.04343 4.51537 5.93066 4.78933 5.93066 5.11156V13.1832ZM9.11003 12.9263H14.9107V3.95135H9.11003V12.9263ZM7.09087 16.9313H14.0071C13.9206 16.75 13.8562 16.5687 13.814 16.3876C13.7716 16.2066 13.7504 16.0057 13.7504 15.7847C13.7504 15.5766 13.7755 15.3741 13.8257 15.1772C13.8758 14.9802 13.9432 14.7914 14.0279 14.6107H7.09087C6.75573 14.6107 6.47857 14.7236 6.25941 14.9493C6.04024 15.1748 5.93066 15.4488 5.93066 15.7711C5.93066 16.1063 6.04024 16.3834 6.25941 16.6026C6.47857 16.8218 6.75573 16.9313 7.09087 16.9313Z" fill="#1C1B1F"/>
</g>
</svg>
