<svg width="1178" height="514" viewBox="0 0 1178 514" fill="none" xmlns="http://www.w3.org/2000/svg">
<mask id="mask0_591_13804" style="mask-type:alpha" maskUnits="userSpaceOnUse" x="-297" y="-277" width="1475" height="1350">
<rect x="1177.87" y="328.711" width="860" height="1205" transform="rotate(120.128 1177.87 328.711)" fill="url(#paint0_linear_591_13804)"/>
</mask>
<g mask="url(#mask0_591_13804)">
<path d="M297.455 624.65C74.3955 506.521 -11.3915 261.254 105.859 76.8778C118.156 57.5403 132.242 39.5721 147.793 23.1183C80.3656 197.691 170.026 405.231 369.733 510.993C569.441 616.755 811.3 584.782 944.028 444.791C936.088 465.276 925.981 485.351 913.684 504.689C796.433 689.065 520.515 742.779 297.455 624.65Z" fill="#E2E8F0"/>
<g filter="url(#filter0_f_591_13804)">
<path d="M305.486 612.021C82.4263 493.892 -11.3915 261.254 105.859 76.8778C118.156 57.5403 132.242 39.5721 147.793 23.1183C80.3656 197.691 161.995 417.86 361.702 523.622C561.41 629.383 811.3 584.782 944.028 444.791C936.088 465.276 925.981 485.351 913.684 504.689C796.433 689.065 528.546 730.15 305.486 612.021Z" fill="#E2E8F0"/>
</g>
<g filter="url(#filter1_f_591_13804)">
<path d="M309.502 605.708C86.4416 487.579 -10.28 244.962 106.971 60.5856C119.268 41.2482 133.354 23.28 148.905 6.82617C81.477 181.398 157.979 424.175 357.687 529.937C557.394 635.698 820.975 567.749 953.703 427.759C945.764 448.244 935.657 468.319 923.359 487.656C806.109 672.033 532.562 723.837 309.502 605.708Z" fill="#E2E8F0"/>
</g>
<g filter="url(#filter2_f_591_13804)">
<path d="M309.502 605.707C86.4416 487.578 -10.28 244.961 106.971 60.5847C119.268 41.2472 133.354 23.279 148.905 6.82519C81.477 181.397 157.979 424.174 357.687 529.936C557.394 635.697 820.975 567.748 953.703 427.758C945.764 448.243 935.657 468.318 923.359 487.656C806.109 672.032 532.562 723.836 309.502 605.707Z" fill="#E2E8F0"/>
</g>
<g filter="url(#filter3_f_591_13804)">
<path d="M309.502 605.707C86.4416 487.578 -10.28 244.961 106.971 60.5847C119.268 41.2472 133.354 23.279 148.905 6.82519C81.477 181.397 157.979 424.174 357.687 529.936C557.394 635.697 820.975 567.748 953.703 427.758C945.764 448.243 935.657 468.318 923.359 487.656C806.109 672.032 532.562 723.836 309.502 605.707Z" fill="#E2E8F0"/>
</g>
<g filter="url(#filter4_f_591_13804)">
<path d="M317.316 563.421C94.2555 445.292 -10.28 244.961 106.971 60.5847C119.268 41.2472 133.354 23.279 148.905 6.82519C81.477 181.397 139.289 441.708 344.637 550.457C601.929 686.715 820.975 567.748 953.703 427.758C945.764 448.243 935.657 468.318 923.359 487.656C806.109 672.032 540.375 681.55 317.316 563.421Z" fill="#E2E8F0"/>
</g>
<g filter="url(#filter5_f_591_13804)">
<path d="M317.316 563.421C94.256 445.292 -56.1537 250.738 61.097 66.3612C73.3943 47.0237 163.487 9.1671 179.038 -7.28672C111.61 167.285 139.29 441.709 344.637 550.457C601.929 686.715 810.456 537.383 943.185 397.393C923.032 386.721 984.767 461.091 972.47 480.428C855.219 664.805 540.376 681.55 317.316 563.421Z" fill="#E2E8F0"/>
</g>
<g filter="url(#filter6_f_591_13804)">
<path d="M317.316 563.421C94.256 445.292 -56.1537 250.738 61.097 66.3612C73.3943 47.0237 163.487 9.1671 179.038 -7.28672C111.61 167.285 139.29 441.709 344.637 550.457C601.929 686.715 810.456 537.383 943.185 397.393C923.032 386.721 984.767 461.091 972.47 480.428C855.219 664.805 540.376 681.55 317.316 563.421Z" fill="#E2E8F0"/>
</g>
<g filter="url(#filter7_f_591_13804)">
<path d="M317.316 563.421C94.2556 445.292 -56.1541 250.738 61.0966 66.3613C73.3939 47.0239 163.487 9.16722 179.037 -7.2866C111.61 167.286 139.289 441.709 344.637 550.458C601.929 686.715 810.456 537.383 943.184 397.393C923.032 386.721 984.766 461.091 972.469 480.428C855.218 664.805 540.375 681.55 317.316 563.421Z" fill="#E2E8F0"/>
</g>
</g>
<defs>
<filter id="filter0_f_591_13804" x="43.0962" y="11.1183" width="912.932" height="679.474" filterUnits="userSpaceOnUse" color-interpolation-filters="sRGB">
<feFlood flood-opacity="0" result="BackgroundImageFix"/>
<feBlend mode="normal" in="SourceGraphic" in2="BackgroundImageFix" result="shape"/>
<feGaussianBlur stdDeviation="6" result="effect1_foregroundBlur_591_13804"/>
</filter>
<filter id="filter1_f_591_13804" x="20.8093" y="-29.1738" width="968.894" height="734.136" filterUnits="userSpaceOnUse" color-interpolation-filters="sRGB">
<feFlood flood-opacity="0" result="BackgroundImageFix"/>
<feBlend mode="normal" in="SourceGraphic" in2="BackgroundImageFix" result="shape"/>
<feGaussianBlur stdDeviation="18" result="effect1_foregroundBlur_591_13804"/>
</filter>
<filter id="filter2_f_591_13804" x="4.80933" y="-45.1748" width="1000.89" height="766.136" filterUnits="userSpaceOnUse" color-interpolation-filters="sRGB">
<feFlood flood-opacity="0" result="BackgroundImageFix"/>
<feBlend mode="normal" in="SourceGraphic" in2="BackgroundImageFix" result="shape"/>
<feGaussianBlur stdDeviation="26" result="effect1_foregroundBlur_591_13804"/>
</filter>
<filter id="filter3_f_591_13804" x="4.80933" y="-45.1748" width="1000.89" height="766.136" filterUnits="userSpaceOnUse" color-interpolation-filters="sRGB">
<feFlood flood-opacity="0" result="BackgroundImageFix"/>
<feBlend mode="normal" in="SourceGraphic" in2="BackgroundImageFix" result="shape"/>
<feGaussianBlur stdDeviation="26" result="effect1_foregroundBlur_591_13804"/>
</filter>
<filter id="filter4_f_591_13804" x="-65.6277" y="-117.175" width="1143.33" height="882.423" filterUnits="userSpaceOnUse" color-interpolation-filters="sRGB">
<feFlood flood-opacity="0" result="BackgroundImageFix"/>
<feBlend mode="normal" in="SourceGraphic" in2="BackgroundImageFix" result="shape"/>
<feGaussianBlur stdDeviation="62" result="effect1_foregroundBlur_591_13804"/>
</filter>
<filter id="filter5_f_591_13804" x="-55.7676" y="-83.2867" width="1105.87" height="797.753" filterUnits="userSpaceOnUse" color-interpolation-filters="sRGB">
<feFlood flood-opacity="0" result="BackgroundImageFix"/>
<feBlend mode="normal" in="SourceGraphic" in2="BackgroundImageFix" result="shape"/>
<feGaussianBlur stdDeviation="38" result="effect1_foregroundBlur_591_13804"/>
</filter>
<filter id="filter6_f_591_13804" x="-143.768" y="-171.287" width="1281.87" height="973.753" filterUnits="userSpaceOnUse" color-interpolation-filters="sRGB">
<feFlood flood-opacity="0" result="BackgroundImageFix"/>
<feBlend mode="normal" in="SourceGraphic" in2="BackgroundImageFix" result="shape"/>
<feGaussianBlur stdDeviation="82" result="effect1_foregroundBlur_591_13804"/>
</filter>
<filter id="filter7_f_591_13804" x="-223.768" y="-251.287" width="1441.87" height="1133.75" filterUnits="userSpaceOnUse" color-interpolation-filters="sRGB">
<feFlood flood-opacity="0" result="BackgroundImageFix"/>
<feBlend mode="normal" in="SourceGraphic" in2="BackgroundImageFix" result="shape"/>
<feGaussianBlur stdDeviation="122" result="effect1_foregroundBlur_591_13804"/>
</filter>
<linearGradient id="paint0_linear_591_13804" x1="1607.87" y1="328.711" x2="1607.87" y2="1533.71" gradientUnits="userSpaceOnUse">
<stop stop-color="#C4C4C4" stop-opacity="0"/>
<stop offset="0.380208" stop-color="#C4C4C4"/>
<stop offset="0.578125" stop-color="#C4C4C4"/>
<stop offset="1" stop-color="#C4C4C4" stop-opacity="0"/>
</linearGradient>
</defs>
</svg>
