<svg width="1402" height="1291" viewBox="0 0 1402 1291" fill="none" xmlns="http://www.w3.org/2000/svg">
<path d="M521.459 1012.66C298.4 869.02 212.613 570.787 329.863 346.594C342.161 323.08 356.246 301.232 371.797 281.225C304.37 493.497 394.03 745.856 593.737 874.458C793.445 1003.06 1035.3 964.181 1168.03 793.96C1160.09 818.868 1149.99 843.279 1137.69 866.792C1020.44 1090.99 744.519 1156.3 521.459 1012.66Z" fill="#E5E7EB"/>
<g filter="url(#filter0_f_201_406)">
<path d="M529.49 997.303C306.43 853.664 212.613 570.787 329.863 346.594C342.161 323.08 356.246 301.232 371.797 281.225C304.37 493.497 385.999 761.212 585.706 889.814C785.414 1018.41 1035.3 964.181 1168.03 793.96C1160.09 818.868 1149.99 843.279 1137.69 866.792C1020.44 1090.99 752.55 1140.94 529.49 997.303Z" fill="#E5E7EB"/>
</g>
<g filter="url(#filter1_f_201_406)">
<path d="M533.506 989.626C310.446 845.987 213.724 550.976 330.975 326.783C343.272 303.27 357.358 281.421 372.909 261.414C305.481 473.686 381.983 768.891 581.691 897.492C781.398 1026.09 1044.98 943.471 1177.71 773.249C1169.77 798.158 1159.66 822.568 1147.36 846.081C1030.11 1070.27 756.566 1133.27 533.506 989.626Z" fill="#E5E7EB"/>
</g>
<g filter="url(#filter2_f_201_406)">
<path d="M533.506 989.625C310.446 845.986 213.724 550.975 330.975 326.782C343.272 303.269 357.358 281.42 372.909 261.413C305.481 473.685 381.983 768.89 581.691 897.491C781.398 1026.09 1044.98 943.469 1177.71 773.248C1169.77 798.156 1159.66 822.567 1147.36 846.08C1030.11 1070.27 756.566 1133.26 533.506 989.625Z" fill="#E5E7EB"/>
</g>
<g filter="url(#filter3_f_201_406)">
<path d="M533.506 989.625C310.446 845.986 213.724 550.975 330.975 326.782C343.272 303.269 357.358 281.42 372.909 261.413C305.481 473.685 381.983 768.89 581.691 897.491C781.398 1026.09 1044.98 943.469 1177.71 773.248C1169.77 798.156 1159.66 822.567 1147.36 846.08C1030.11 1070.27 756.566 1133.26 533.506 989.625Z" fill="#E5E7EB"/>
</g>
<g filter="url(#filter4_f_201_406)">
<path d="M541.32 938.207C318.26 794.568 213.724 550.975 330.975 326.782C343.272 303.269 357.358 281.42 372.909 261.413C305.481 473.685 363.293 790.211 568.641 922.444C825.933 1088.13 1044.98 943.469 1177.71 773.248C1169.77 798.156 1159.66 822.567 1147.36 846.08C1030.11 1070.27 764.379 1081.85 541.32 938.207Z" fill="#E5E7EB"/>
</g>
<g filter="url(#filter5_f_201_406)">
<path d="M541.32 938.208C318.26 794.569 167.85 557.999 285.101 333.806C297.398 310.293 387.491 264.261 403.042 244.254C335.614 456.525 363.294 790.211 568.641 922.445C825.933 1088.13 1034.46 906.547 1167.19 736.325C1147.04 723.348 1208.77 813.779 1196.47 837.292C1079.22 1061.49 764.38 1081.85 541.32 938.208Z" fill="#E5E7EB"/>
</g>
<g filter="url(#filter6_f_201_406)">
<path d="M541.32 938.208C318.26 794.569 167.85 557.999 285.101 333.806C297.398 310.293 387.491 264.261 403.042 244.254C335.614 456.525 363.294 790.211 568.641 922.445C825.933 1088.13 1034.46 906.547 1167.19 736.325C1147.04 723.348 1208.77 813.779 1196.47 837.292C1079.22 1061.49 764.38 1081.85 541.32 938.208Z" fill="#E5E7EB"/>
</g>
<g filter="url(#filter7_f_201_406)">
<path d="M541.32 938.208C318.26 794.569 167.85 557.999 285.101 333.806C297.398 310.293 387.491 264.261 403.041 244.254C335.614 456.526 363.293 790.211 568.641 922.445C825.933 1088.13 1034.46 906.547 1167.19 736.326C1147.04 723.349 1208.77 813.779 1196.47 837.292C1079.22 1061.49 764.38 1081.85 541.32 938.208Z" fill="#E5E7EB"/>
</g>
<defs>
<filter id="filter0_f_201_406" x="267.1" y="269.225" width="912.932" height="821.026" filterUnits="userSpaceOnUse" color-interpolation-filters="sRGB">
<feFlood flood-opacity="0" result="BackgroundImageFix"/>
<feBlend mode="normal" in="SourceGraphic" in2="BackgroundImageFix" result="shape"/>
<feGaussianBlur stdDeviation="6" result="effect1_foregroundBlur_201_406"/>
</filter>
<filter id="filter1_f_201_406" x="244.813" y="225.414" width="968.894" height="877.126" filterUnits="userSpaceOnUse" color-interpolation-filters="sRGB">
<feFlood flood-opacity="0" result="BackgroundImageFix"/>
<feBlend mode="normal" in="SourceGraphic" in2="BackgroundImageFix" result="shape"/>
<feGaussianBlur stdDeviation="18" result="effect1_foregroundBlur_201_406"/>
</filter>
<filter id="filter2_f_201_406" x="228.813" y="209.413" width="1000.89" height="909.126" filterUnits="userSpaceOnUse" color-interpolation-filters="sRGB">
<feFlood flood-opacity="0" result="BackgroundImageFix"/>
<feBlend mode="normal" in="SourceGraphic" in2="BackgroundImageFix" result="shape"/>
<feGaussianBlur stdDeviation="26" result="effect1_foregroundBlur_201_406"/>
</filter>
<filter id="filter3_f_201_406" x="228.813" y="209.413" width="1000.89" height="909.126" filterUnits="userSpaceOnUse" color-interpolation-filters="sRGB">
<feFlood flood-opacity="0" result="BackgroundImageFix"/>
<feBlend mode="normal" in="SourceGraphic" in2="BackgroundImageFix" result="shape"/>
<feGaussianBlur stdDeviation="26" result="effect1_foregroundBlur_201_406"/>
</filter>
<filter id="filter4_f_201_406" x="158.376" y="137.413" width="1143.33" height="1019.43" filterUnits="userSpaceOnUse" color-interpolation-filters="sRGB">
<feFlood flood-opacity="0" result="BackgroundImageFix"/>
<feBlend mode="normal" in="SourceGraphic" in2="BackgroundImageFix" result="shape"/>
<feGaussianBlur stdDeviation="62" result="effect1_foregroundBlur_201_406"/>
</filter>
<filter id="filter5_f_201_406" x="168.236" y="168.254" width="1105.87" height="937.205" filterUnits="userSpaceOnUse" color-interpolation-filters="sRGB">
<feFlood flood-opacity="0" result="BackgroundImageFix"/>
<feBlend mode="normal" in="SourceGraphic" in2="BackgroundImageFix" result="shape"/>
<feGaussianBlur stdDeviation="38" result="effect1_foregroundBlur_201_406"/>
</filter>
<filter id="filter6_f_201_406" x="80.2365" y="80.2537" width="1281.87" height="1113.2" filterUnits="userSpaceOnUse" color-interpolation-filters="sRGB">
<feFlood flood-opacity="0" result="BackgroundImageFix"/>
<feBlend mode="normal" in="SourceGraphic" in2="BackgroundImageFix" result="shape"/>
<feGaussianBlur stdDeviation="82" result="effect1_foregroundBlur_201_406"/>
</filter>
<filter id="filter7_f_201_406" x="0.236092" y="0.253891" width="1441.87" height="1273.2" filterUnits="userSpaceOnUse" color-interpolation-filters="sRGB">
<feFlood flood-opacity="0" result="BackgroundImageFix"/>
<feBlend mode="normal" in="SourceGraphic" in2="BackgroundImageFix" result="shape"/>
<feGaussianBlur stdDeviation="122" result="effect1_foregroundBlur_201_406"/>
</filter>
</defs>
</svg>
