<svg width="47" height="33" viewBox="0 0 47 33" fill="none" xmlns="http://www.w3.org/2000/svg">
<path d="M46.585 15.8874C46.4777 15.7242 43.9051 11.8417 39.7187 7.95327C35.9462 4.44276 30.0656 0.259003 23.4729 0.259003C18.2056 0.259003 12.5301 2.97542 7.05987 8.1147L7.05942 8.11515C2.97848 11.9539 0.467237 15.7274 0.36217 15.8861C0.212911 16.112 0.21246 16.4051 0.361719 16.631C0.781537 17.2691 10.8017 32.259 23.4729 32.259C36.1446 32.259 46.1643 17.2691 46.5846 16.631C46.7334 16.4056 46.7334 16.1129 46.585 15.8874ZM38.1684 8.37218C33.2108 11.6938 28.205 13.3811 23.2772 13.3811C18.4252 13.3811 13.4956 11.7456 8.61289 8.5246C12.2537 5.24316 17.6067 1.6118 23.4729 1.6118C29.2791 1.6118 34.5699 5.16154 38.1684 8.37218ZM15.6082 16.9972C15.6082 15.8545 15.8571 14.7249 16.3292 13.6968C16.9082 13.8691 17.4872 14.0165 18.0662 14.1459C17.9152 14.6609 17.8295 15.1971 17.8295 15.7341C17.8295 17.9816 19.1561 19.9201 21.0654 20.8251C19.3735 20.624 17.6929 20.2416 16.1259 19.779C15.7967 18.9127 15.6082 17.9775 15.6082 16.9972ZM27.5196 14.3425C27.6765 14.7872 27.7568 15.2534 27.7568 15.7346C27.7568 15.8892 27.7473 16.0417 27.7315 16.1923C26.0184 16.3799 24.263 16.4899 22.5832 16.4592C22.2072 16.4421 21.9014 16.7496 21.8947 17.123C21.8879 17.4968 22.1851 17.8048 22.5584 17.8116C22.7586 17.8152 22.958 17.817 23.1595 17.817C24.5358 17.817 25.9418 17.734 27.3234 17.5992C26.6281 19.0286 25.1653 20.0189 23.472 20.0189C21.106 20.0189 19.1814 18.097 19.1814 15.7346C19.1814 15.2778 19.254 14.8341 19.3933 14.4088C20.6898 14.6248 21.9853 14.7344 23.2763 14.7344C24.6877 14.7339 26.1032 14.6005 27.5196 14.3425ZM23.4607 22.3362C24.9064 22.3362 26.3382 22.1761 27.7 21.7965C28.0598 21.6963 28.2704 21.3234 28.1698 20.9636C28.0697 20.6037 27.695 20.3927 27.337 20.4937C26.8847 20.6195 26.4207 20.7151 25.9508 20.79C27.3216 20.1149 28.3827 18.9046 28.8489 17.4283C29.7003 17.3214 30.5327 17.1978 31.3349 17.0648C31.2975 21.3703 27.7865 24.8623 23.4729 24.8623C20.7845 24.8623 18.409 23.5046 16.9903 21.4407C19.0578 21.9705 21.2764 22.3362 23.4607 22.3362ZM29.0952 16.0259C29.1001 15.9285 29.11 15.8324 29.11 15.7341C29.11 15.1583 29.0162 14.6 28.8458 14.0621C29.4194 13.925 29.9934 13.7676 30.567 13.589C30.8872 14.2546 31.1077 14.9675 31.229 15.703C30.5377 15.8193 29.8234 15.9285 29.0952 16.0259ZM23.4729 30.9062C12.6014 30.9062 3.38387 18.5768 1.74789 16.259C2.45269 15.2588 4.56351 12.3959 7.59288 9.47517C10.0626 11.1341 12.5495 12.399 15.0391 13.2752C14.5269 14.4417 14.2554 15.7125 14.2554 16.9976C14.2554 17.7863 14.3654 18.5475 14.5526 19.2784C10.735 17.9762 7.91214 16.3961 7.85577 16.3645C7.53065 16.1805 7.11804 16.2942 6.93361 16.6188C6.74918 16.944 6.86327 17.3566 7.18794 17.541C7.44317 17.6858 10.7778 19.5535 15.1406 20.9149C16.6174 24.0412 19.792 26.2151 23.4729 26.2151C23.7336 26.2151 23.9897 26.1971 24.2445 26.1764C23.8891 26.2206 23.6262 26.5335 23.6524 26.8947C23.6786 27.2505 23.9753 27.5215 24.3265 27.5215C24.3432 27.5215 24.3599 27.521 24.3766 27.5197C32.1877 26.9457 38.1088 21.4217 38.3569 21.1868C38.6283 20.9302 38.64 20.5018 38.3835 20.2308C38.1273 19.9598 37.6985 19.9476 37.4275 20.2042C37.3711 20.2574 31.7732 25.4774 24.5858 26.1416C29.1448 25.5893 32.6909 21.7031 32.6909 16.9981C32.6909 16.9417 32.6864 16.8858 32.6855 16.8294C36.4417 16.1345 39.2429 15.3184 39.4495 15.2579C39.8075 15.1524 40.0127 14.7763 39.9072 14.4178C39.8016 14.0598 39.4269 13.8551 39.0671 13.9601C39.0179 13.9746 36.2663 14.7759 32.5597 15.4685C32.4262 14.6663 32.1886 13.8875 31.8522 13.1539C34.307 12.2547 36.7588 10.9777 39.1929 9.31734C42.3093 12.2863 44.4819 15.2399 45.198 16.259C43.5642 18.5741 34.3463 30.9062 23.4729 30.9062Z" fill="#046CC8"/>
</svg>
