<svg width="21" height="21" viewBox="0 0 21 21" fill="none" xmlns="http://www.w3.org/2000/svg">
<mask id="mask0_819_2276" style="mask-type:alpha" maskUnits="userSpaceOnUse" x="0" y="0" width="21" height="21">
<rect x="0.551025" y="0.367676" width="20" height="20" fill="#D9D9D9"/>
</mask>
<g mask="url(#mask0_819_2276)">
<path d="M9.48853 11.2427L8.23853 10.0135C8.08575 9.86073 7.91214 9.78434 7.71769 9.78434C7.52325 9.78434 7.34964 9.86073 7.19686 10.0135C7.04408 10.1663 6.96769 10.3434 6.96769 10.5448C6.96769 10.7461 7.04408 10.9232 7.19686 11.076L8.96769 12.8468C9.12047 12.9996 9.29408 13.076 9.48853 13.076C9.68297 13.076 9.85658 12.9996 10.0094 12.8468L13.9052 8.95101C14.058 8.79823 14.1344 8.62115 14.1344 8.41976C14.1344 8.21837 14.058 8.04129 13.9052 7.88851C13.7524 7.73573 13.5788 7.65934 13.3844 7.65934C13.1899 7.65934 13.0163 7.73573 12.8635 7.88851L9.48853 11.2427ZM10.551 18.3677C9.4538 18.3677 8.41908 18.1593 7.44686 17.7427C6.47464 17.326 5.62394 16.7531 4.89478 16.0239C4.16561 15.2948 3.59269 14.4441 3.17603 13.4718C2.75936 12.4996 2.55103 11.4649 2.55103 10.3677C2.55103 9.25656 2.75936 8.21837 3.17603 7.25309C3.59269 6.28781 4.16561 5.44059 4.89478 4.71143C5.62394 3.98226 6.47464 3.40934 7.44686 2.99268C8.41908 2.57601 9.4538 2.36768 10.551 2.36768C11.6621 2.36768 12.7003 2.57601 13.6656 2.99268C14.6309 3.40934 15.4781 3.98226 16.2073 4.71143C16.9364 5.44059 17.5094 6.28781 17.926 7.25309C18.3427 8.21837 18.551 9.25656 18.551 10.3677C18.551 11.4649 18.3427 12.4996 17.926 13.4718C17.5094 14.4441 16.9364 15.2948 16.2073 16.0239C15.4781 16.7531 14.6309 17.326 13.6656 17.7427C12.7003 18.1593 11.6621 18.3677 10.551 18.3677Z" fill="#1B57A6"/>
</g>
</svg>
