<svg width="25" height="25" viewBox="0 0 25 25" fill="none" xmlns="http://www.w3.org/2000/svg">
<mask id="mask0_843_2268" style="mask-type:alpha" maskUnits="userSpaceOnUse" x="0" y="0" width="25" height="25">
<rect x="0.668945" y="0.229492" width="24" height="24" fill="#D9D9D9"/>
</mask>
<g mask="url(#mask0_843_2268)">
<path d="M7.66895 23.2295L10.4689 9.12949L8.66895 9.82949V13.2295H6.66895V8.52949L11.7189 6.37949C11.9523 6.27949 12.1981 6.22116 12.4564 6.20449C12.7148 6.18783 12.9606 6.22116 13.1939 6.30449C13.4273 6.38783 13.6481 6.50449 13.8564 6.65449C14.0648 6.80449 14.2356 6.99616 14.3689 7.22949L15.3689 8.82949C15.8023 9.52949 16.3898 10.1045 17.1314 10.5545C17.8731 11.0045 18.7189 11.2295 19.6689 11.2295V13.2295C18.5023 13.2295 17.4606 12.9878 16.5439 12.5045C15.6273 12.0212 14.8439 11.4045 14.1939 10.6545L13.5689 13.7295L15.6689 15.7295V23.2295H13.6689V16.7295L11.5689 15.1295L9.76895 23.2295H7.66895ZM14.1689 5.72949C13.6189 5.72949 13.1481 5.53366 12.7564 5.14199C12.3648 4.75033 12.1689 4.27949 12.1689 3.72949C12.1689 3.17949 12.3648 2.70866 12.7564 2.31699C13.1481 1.92533 13.6189 1.72949 14.1689 1.72949C14.7189 1.72949 15.1898 1.92533 15.5814 2.31699C15.9731 2.70866 16.1689 3.17949 16.1689 3.72949C16.1689 4.27949 15.9731 4.75033 15.5814 5.14199C15.1898 5.53366 14.7189 5.72949 14.1689 5.72949Z" fill="#1F2937"/>
</g>
</svg>
