<svg width="28" height="25" viewBox="0 0 28 25" fill="none" xmlns="http://www.w3.org/2000/svg">
<path d="M21.752 3.76284C17.8933 3.35912 16.0497 6.53803 14.0112 7.17816C13.7803 7.19818 13.5422 7.19998 13.2986 7.19455C13.3095 7.19818 13.3203 7.20364 13.3311 7.20727C15.4598 7.39095 18.1242 6.24704 20.9294 8.55668C25.9624 12.6994 22.4934 20.5357 13.7154 23.6619C14.289 23.8638 14.8861 24.0457 15.5049 24.2057C16.7045 24.5148 17.9944 24.2239 19.0118 23.5128C29.857 15.9129 29.6984 4.59757 21.752 3.76284Z" fill="#A7F3D8"/>
<path d="M21.752 3.76284C17.8933 3.35912 16.0497 6.53803 14.0112 7.17816C13.7803 7.19818 13.5422 7.19998 13.2986 7.19455C13.3095 7.19818 13.3203 7.20364 13.3311 7.20727C15.4598 7.39095 18.1242 6.24704 20.9294 8.55668C25.9624 12.6994 22.4934 20.5357 13.7154 23.6619C14.289 23.8638 14.8861 24.0457 15.5049 24.2057C16.7045 24.5148 17.9944 24.2239 19.0118 23.5128C29.857 15.9129 29.6984 4.59757 21.752 3.76284Z" fill="url(#paint0_radial_800_1335)"/>
<path d="M5.7102 3.76284C9.56887 3.35912 11.4125 6.53803 13.451 7.17816C13.6819 7.19818 13.92 7.19998 14.1636 7.19455C14.1527 7.19818 14.1419 7.20364 14.1311 7.20727C12.0024 7.39095 9.33798 6.24704 6.53281 8.55668C1.49977 12.6994 4.96879 20.5357 13.7468 23.6619C13.1732 23.8638 12.5761 24.0457 11.9573 24.2057C10.7577 24.5148 9.46785 24.2239 8.45041 23.5128C-2.39497 15.9129 -2.23622 4.59757 5.7102 3.76284Z" fill="url(#paint1_radial_800_1335)"/>
<path d="M13.716 23.662C13.1207 23.8712 12.4966 24.0657 11.8453 24.2367C5.84535 21.4269 2.57659 16.3785 4.14423 12.4922C3.61566 16.5495 7.23441 21.3851 13.716 23.662Z" fill="url(#paint2_linear_800_1335)"/>
<path d="M20.9275 8.55649C18.1224 6.24685 15.4579 7.39076 13.3293 7.20708C13.3184 7.20345 13.3076 7.19799 13.2968 7.19436C11.2998 7.15069 8.91134 6.46873 6.41105 8.52921C1.36358 12.6865 4.87227 20.5574 13.7117 23.6617C22.4916 20.5356 25.9606 12.6992 20.9275 8.55649Z" fill="url(#paint3_radial_800_1335)"/>
<path d="M10.0386 2.72772C8.86514 2.07052 8.71787 0.636119 9.88366 0.404353C10.878 0.206656 11.9323 0.393507 12.8123 0.964884C14.2945 1.92688 14.6774 4.33833 13.9741 5.79933C13.8249 6.10918 13.4166 6.08925 13.2112 5.81345C12.3382 4.64139 11.212 3.38492 10.0386 2.72772Z" fill="url(#paint4_radial_800_1335)"/>
<defs>
<radialGradient id="paint0_radial_800_1335" cx="0" cy="0" r="1" gradientUnits="userSpaceOnUse" gradientTransform="translate(15.2283 11.115) rotate(-33.658) scale(17.8331 17.9778)">
<stop offset="0.536654" stop-color="#1CDFCD"/>
<stop offset="1" stop-color="#00AA9C"/>
</radialGradient>
<radialGradient id="paint1_radial_800_1335" cx="0" cy="0" r="1" gradientUnits="userSpaceOnUse" gradientTransform="translate(14.1477 8.46173) rotate(178.58) scale(14.1521 14.2669)">
<stop stop-color="#1DDFCE"/>
<stop offset="0.992249" stop-color="#2B5AE0"/>
</radialGradient>
<linearGradient id="paint2_linear_800_1335" x1="12.0094" y1="23.8071" x2="4.49197" y2="16.3873" gradientUnits="userSpaceOnUse">
<stop stop-color="#2B59E0"/>
<stop offset="1" stop-color="#071037" stop-opacity="0"/>
</linearGradient>
<radialGradient id="paint3_radial_800_1335" cx="0" cy="0" r="1" gradientUnits="userSpaceOnUse" gradientTransform="translate(23.4429 18.9402) rotate(-151.073) scale(20.0643 20.2271)">
<stop offset="0.08836" stop-color="#2B59E0"/>
<stop offset="0.796792" stop-color="#1DDFCE"/>
</radialGradient>
<radialGradient id="paint4_radial_800_1335" cx="0" cy="0" r="1" gradientUnits="userSpaceOnUse" gradientTransform="translate(10.4987 2.45048) rotate(33.1769) scale(6.41413 6.20434)">
<stop offset="0.192111" stop-color="#2B59E0"/>
<stop offset="0.793069" stop-color="#1DDFCE"/>
</radialGradient>
</defs>
</svg>
