<svg width="77" height="21" viewBox="0 0 77 21" fill="none" xmlns="http://www.w3.org/2000/svg">
<g clip-path="url(#clip0_137_452)">
<path d="M30.7508 16.0641C31.9154 16.0641 32.9756 15.556 33.3927 14.8447V15.9286H35.287V3.9375H33.3927V8.45957C32.8713 7.74824 31.8458 7.25707 30.7161 7.25707C28.0744 7.25707 26.5625 9.08622 26.5625 11.6606C26.5625 14.235 28.0744 16.0641 30.7508 16.0641ZM30.9942 14.4551C29.4649 14.4551 28.4568 13.3373 28.4568 11.6606C28.4568 9.96693 29.4649 8.86605 30.9942 8.86605C32.5237 8.86605 33.5318 9.96693 33.5318 11.6606C33.5318 13.3373 32.5237 14.4551 30.9942 14.4551Z" fill="#111827"/>
<path d="M40.9404 16.057C43.565 16.057 45.4593 14.2109 45.4593 11.6535C45.4593 9.0961 43.565 7.25 40.9404 7.25C38.2988 7.25 36.4219 9.0961 36.4219 11.6535C36.4219 14.2109 38.2988 16.057 40.9404 16.057ZM40.9404 14.448C39.3764 14.448 38.3335 13.2964 38.3335 11.6535C38.3335 10.0107 39.3764 8.85898 40.9404 8.85898C42.4874 8.85898 43.5476 10.0107 43.5476 11.6535C43.5476 13.2964 42.4874 14.448 40.9404 14.448Z" fill="#111827"/>
<path d="M49.9047 16.057C52.0426 16.057 53.5545 14.99 53.9195 13.2117L52.06 12.856C51.8514 13.8553 51.0692 14.448 49.9569 14.448C48.4623 14.448 47.4716 13.3472 47.4716 11.6535C47.4716 9.95986 48.445 8.85898 49.9569 8.85898C51.0692 8.85898 51.8861 9.5195 52.06 10.4849L53.9021 10.1292C53.6066 8.36781 52.06 7.25 49.9047 7.25C47.2804 7.25 45.5078 9.02833 45.5078 11.6535C45.5078 14.2787 47.2804 16.057 49.9047 16.057Z" fill="#111827"/>
<path d="M59.7737 15.8525L59.6521 14.2097C59.3218 14.3621 58.9221 14.4129 58.5918 14.4129C57.8792 14.4129 57.3926 13.9726 57.3926 13.1257V8.95935H59.6521V7.38425H57.3926V4.84375H55.4983V7.38425H53.9688V8.95935H55.4983V13.2274C55.4983 15.1751 56.7323 16.0558 58.3833 16.0558C58.8699 16.0558 59.3566 15.988 59.7737 15.8525Z" fill="#111827"/>
<path d="M61.6149 5.96617C62.3275 5.96617 62.8663 5.44115 62.8663 4.78062C62.8663 4.10315 62.3275 3.57812 61.6149 3.57812C60.9196 3.57812 60.3984 4.10315 60.3984 4.78062C60.3984 5.44115 60.9196 5.96617 61.6149 5.96617ZM60.6763 15.9249H62.5708V7.38886H60.6763V15.9249Z" fill="#111827"/>
<path d="M64.9348 15.9262H66.8291V8.96523H68.967V7.39013H66.8291V6.62797C66.8291 5.78116 67.3158 5.23918 68.0631 5.23918C68.3586 5.23918 68.6541 5.28999 68.967 5.40854L69.0712 3.85037C68.6889 3.73182 68.2543 3.66406 67.8198 3.66406C66.1512 3.66406 64.9348 4.73109 64.9348 6.66185V7.39013H63.4922V8.96523H64.9348V15.9262Z" fill="#111827"/>
<path d="M74.7537 7.39062L72.4075 13.3015L70.1132 7.39062H68.0625L71.4689 15.6726L70.148 19.0091H72.0946L76.7004 7.39062H74.7537Z" fill="#111827"/>
<path d="M17.8261 3.72424C14.6638 3.39339 13.153 5.99855 11.4824 6.52315C11.2932 6.53955 11.098 6.54103 10.8984 6.53658C10.9073 6.53955 10.9162 6.54403 10.9251 6.54701C12.6695 6.69753 14.8531 5.76008 17.152 7.65286C21.2766 11.0479 18.4337 17.4699 11.2399 20.0318C11.7101 20.1973 12.1994 20.3463 12.7065 20.4775C13.6896 20.7308 14.7467 20.4924 15.5804 19.9096C24.4683 13.6814 24.3383 4.40832 17.8261 3.72424Z" fill="#A7F3D8"/>
<path d="M17.8261 3.72424C14.6638 3.39339 13.153 5.99855 11.4824 6.52315C11.2932 6.53955 11.098 6.54103 10.8984 6.53658C10.9073 6.53955 10.9162 6.54403 10.9251 6.54701C12.6695 6.69753 14.8531 5.76008 17.152 7.65286C21.2766 11.0479 18.4337 17.4699 11.2399 20.0318C11.7101 20.1973 12.1994 20.3463 12.7065 20.4775C13.6896 20.7308 14.7467 20.4924 15.5804 19.9096C24.4683 13.6814 24.3383 4.40832 17.8261 3.72424Z" fill="url(#paint0_radial_137_452)"/>
<path d="M4.67959 3.72424C7.84183 3.39339 9.35274 5.99855 11.0233 6.52315C11.2125 6.53955 11.4077 6.54103 11.6073 6.53658C11.5984 6.53955 11.5895 6.54403 11.5806 6.54701C9.83616 6.69753 7.65262 5.76008 5.35373 7.65286C1.22909 11.0479 4.072 17.4699 11.2657 20.0318C10.7956 20.1973 10.3063 20.3463 9.79919 20.4775C8.81609 20.7308 7.75905 20.4924 6.92524 19.9096C-1.96272 13.6814 -1.83262 4.40832 4.67959 3.72424Z" fill="url(#paint1_radial_137_452)"/>
<path d="M11.2424 20.0288C10.7546 20.2002 10.2431 20.3597 9.70937 20.4998C4.7923 18.1972 2.11349 14.0599 3.3982 10.875C2.96503 14.2 5.93065 18.1629 11.2424 20.0288Z" fill="url(#paint2_linear_137_452)"/>
<path d="M17.1446 7.65502C14.8457 5.76224 12.6622 6.69969 10.9177 6.54917C10.9088 6.54619 10.8999 6.54172 10.8911 6.53874C9.25452 6.50295 7.29714 5.94407 5.24811 7.63267C1.11164 11.0396 3.98706 17.49 11.2311 20.034C18.4263 17.4721 21.2692 11.0501 17.1446 7.65502Z" fill="url(#paint3_radial_137_452)"/>
<path d="M8.23066 2.87276C7.26902 2.33417 7.14833 1.15866 8.10371 0.96872C8.91862 0.806704 9.78262 0.959832 10.5038 1.42808C11.7185 2.21645 12.0323 4.19268 11.4559 5.38999C11.3336 5.64391 10.999 5.62758 10.8306 5.40156C10.1153 4.44103 9.19231 3.41134 8.23066 2.87276Z" fill="url(#paint4_radial_137_452)"/>
</g>
<defs>
<radialGradient id="paint0_radial_137_452" cx="0" cy="0" r="1" gradientUnits="userSpaceOnUse" gradientTransform="translate(12.4798 9.74944) rotate(-33.658) scale(14.6145 14.7331)">
<stop offset="0.536654" stop-color="#1CDFCD"/>
<stop offset="1" stop-color="#00AA9C"/>
</radialGradient>
<radialGradient id="paint1_radial_137_452" cx="0" cy="0" r="1" gradientUnits="userSpaceOnUse" gradientTransform="translate(11.5942 7.57506) rotate(178.58) scale(11.5978 11.692)">
<stop stop-color="#1DDFCE"/>
<stop offset="0.992249" stop-color="#2B5AE0"/>
</radialGradient>
<linearGradient id="paint2_linear_137_452" x1="9.84382" y1="20.1477" x2="3.68318" y2="14.0671" gradientUnits="userSpaceOnUse">
<stop stop-color="#2B59E0"/>
<stop offset="1" stop-color="#071037" stop-opacity="0"/>
</linearGradient>
<radialGradient id="paint3_radial_137_452" cx="0" cy="0" r="1" gradientUnits="userSpaceOnUse" gradientTransform="translate(7.59952 11.4921) rotate(27.5012) scale(18.1591 15.7077)">
<stop offset="0.192111" stop-color="#2B59E0"/>
<stop offset="0.793069" stop-color="#1DDFCE"/>
</radialGradient>
<radialGradient id="paint4_radial_137_452" cx="0" cy="0" r="1" gradientUnits="userSpaceOnUse" gradientTransform="translate(11.778 4.24842) rotate(-145.237) scale(4.78503 5.33738)">
<stop offset="0.08836" stop-color="#2B59E0"/>
<stop offset="0.796792" stop-color="#1DDFCE"/>
</radialGradient>
<clipPath id="clip0_137_452">
<rect width="76.9048" height="20" fill="white" transform="translate(0 0.5)"/>
</clipPath>
</defs>
</svg>
