<svg width="142" height="32" viewBox="0 0 142 32" fill="none" xmlns="http://www.w3.org/2000/svg">
<path d="M5.40261 4.8819C5.82454 4.46026 6.56063 4.50514 7.03864 4.98298L12.1841 10.13C12.6622 10.6069 12.7082 11.3442 12.2861 11.7651C11.864 12.1875 11.1284 12.141 10.6496 11.6652L5.50322 6.51747C5.02608 6.0408 4.98003 5.30424 5.40261 4.8819Z" fill="#8A2790"/>
<path d="M20.4389 19.9213C20.8605 19.499 21.5971 19.5448 22.0749 20.0229L27.1915 25.1406C27.67 25.6172 27.7156 26.3533 27.2935 26.7752C26.8713 27.1981 26.1357 27.1516 25.6577 26.6744L20.5397 21.5583C20.0619 21.0786 20.0169 20.3437 20.4389 19.9213Z" fill="#8A2790"/>
<path d="M8.06654 2.83716C8.48841 2.41447 9.2245 2.46081 9.70164 2.93748L15.1341 8.36896C15.6121 8.84797 15.7086 9.63422 15.2864 10.0568C14.8643 10.4785 14.1282 10.4336 13.6502 9.95595L8.16739 4.47361C7.68978 3.99536 7.64443 3.25904 8.06654 2.83716Z" fill="#5B2B8A"/>
<path d="M15.5219 0.808802C15.9445 0.38699 16.6806 0.432161 17.1582 0.909708L31.3021 15.0537C31.7797 15.5314 31.8249 16.268 31.4036 16.6894C30.9818 17.1118 30.2455 17.0659 29.7686 16.5886L15.6235 2.44443C15.1454 1.96747 15.1005 1.2312 15.5219 0.808802Z" fill="#30A19B"/>
<path d="M22.1447 16.9144C22.5666 16.4921 23.3031 16.5379 23.781 17.0162L29.242 22.4777C29.7205 22.9555 29.7657 23.6904 29.3431 24.114C28.9218 24.5352 28.1856 24.4917 27.7084 24.0127L22.2458 18.5498C21.7677 18.0731 21.7226 17.3361 22.1447 16.9144Z" fill="#5B2B8A"/>
<path d="M11.4673 1.5295C11.8892 1.10652 12.6255 1.15287 13.1036 1.63159L30.5608 19.0877C31.0377 19.5652 31.0835 20.3008 30.6617 20.7232C30.2393 21.1456 29.503 21.0998 29.0258 20.6224L11.5684 3.16513C11.091 2.68758 11.0456 1.95132 11.4673 1.5295Z" fill="#1B57A6"/>
<path d="M21.2504 1.83711C21.673 1.41471 22.4089 1.46047 22.8871 1.93684L30.2084 9.25979C30.6859 9.73757 30.7311 10.4734 30.3093 10.8951C29.8869 11.317 29.1512 11.2721 28.6733 10.7945L21.3521 3.47332C20.8745 2.9946 20.8297 2.25892 21.2504 1.83711Z" fill="#2AB34C"/>
<path d="M3.27485 7.62635C2.85298 8.04875 2.89763 8.78461 3.3757 9.26192L8.89952 14.7856C9.3776 15.2643 10.1139 15.3094 10.5356 14.8875C10.9581 14.4645 10.9118 13.7291 10.4347 13.2508L4.91089 7.72649C4.43329 7.2503 3.6972 7.20401 3.27485 7.62635Z" fill="#D40F86"/>
<path d="M1.22308 15.0549C0.80045 15.4763 0.846094 16.2138 1.32388 16.6898L15.5164 30.8841C15.9947 31.3603 16.7308 31.4055 17.1529 30.9843C17.5743 30.5626 17.5285 29.8256 17.0516 29.3494L2.85906 15.155C2.38081 14.6775 1.64472 14.6319 1.22308 15.0549Z" fill="#F57920"/>
<path d="M17.3324 21.6856C16.91 22.1073 16.9554 22.8434 17.433 23.32L22.938 28.8248C23.4158 29.3031 24.1517 29.3483 24.5743 28.9275C24.9959 28.5047 24.9503 27.77 24.4728 27.2911L18.968 21.7869C18.4899 21.3086 17.7538 21.2628 17.3324 21.6856Z" fill="#D40F86"/>
<path d="M1.92363 10.9856C1.50129 11.4084 1.54617 12.1434 2.02377 12.6217L19.5514 30.1495C20.0296 30.6259 20.7657 30.6715 21.1876 30.2492C21.6093 29.8279 21.5639 29.0923 21.0861 28.6148L3.55896 11.0862C3.08183 10.6096 2.34462 10.5635 1.92363 10.9856Z" fill="#EE4626"/>
<path d="M2.19133 20.7344C1.76899 21.1572 1.81527 21.8933 2.29282 22.3707L9.83565 29.9142C10.3132 30.3922 11.0491 30.4369 11.4714 30.0146C11.8933 29.5938 11.8477 28.857 11.3699 28.3799L3.82754 20.8364C3.34976 20.3586 2.61343 20.3128 2.19133 20.7344Z" fill="#F9A82D"/>
<path d="M63.0407 0.856649C63.4766 0.856649 63.7283 1.09014 63.6585 1.55654L63.2959 5.13456C63.2584 5.59973 63.0407 5.79386 62.6066 5.79386H53.2668V13.4148H61.8826C62.3901 13.4148 62.5344 13.6492 62.4992 14.0773L62.0997 17.6548C62.0645 18.0827 61.8462 18.2768 61.3757 18.2768H53.2668V26.2094H63.1498C63.6209 26.2094 63.8004 26.4038 63.7641 26.9098L63.7429 30.4875C63.7025 30.9532 63.5247 31.1479 63.053 31.1479H48.3793C47.8718 31.1479 47.582 30.9144 47.582 30.2938V1.71142C47.582 1.16699 47.8003 0.856649 48.3793 0.856649H63.0407Z" fill="#4B5563"/>
<path d="M65.6223 8.61796C65.6223 6.0781 66.4894 4.04149 68.2283 2.54062C69.8211 1.19481 72.139 0.4251 75.2166 0.4251C76.8828 0.4251 78.8352 0.732517 80.1399 1.15433C80.7923 1.38724 80.8639 1.69406 80.8639 2.23203V5.30811C80.8639 5.96488 80.4304 6.11794 79.7786 5.96488C78.5102 5.65483 77.0259 5.4252 75.4331 5.4252C74.0926 5.4252 73.1175 5.65483 72.4646 6.07811C71.5946 6.6558 71.198 7.54107 71.198 8.69423V8.84617C71.198 10.9625 72.0662 12.0403 74.3108 12.8864L76.2286 13.6564C80.5729 15.3864 82.4203 17.7715 82.4203 22.0407V22.4245C82.4203 28.75 77.7147 31.3354 71.3822 31.3354C70.1355 31.3354 68.0898 31.3025 66.5322 30.7236C65.881 30.4931 65.7719 30.1862 65.6639 29.6864L65.5613 26.8078C65.5613 26.2406 65.8077 25.8602 66.4601 26.0234C68.3773 26.4984 70.1332 26.4457 71.1862 26.3797C75.3152 26.1295 76.9538 24.9958 76.9538 22.5785V22.3853C76.9538 20.3102 76.0485 19.039 73.2971 18.0021L71.5594 17.3467C67.8681 15.9637 65.6223 13.2702 65.6223 8.887V8.61796Z" fill="#4B5563"/>
<path d="M89.6034 20.4528C89.6034 22.5524 89.9289 24.1073 90.8348 25.1196C91.7388 26.0919 93.26 26.559 95.2876 26.559C97.3503 26.559 99.4881 26.0135 100.972 25.3907C101.333 25.2375 101.912 25.4307 101.767 26.0919L101.19 29.5516C101.08 30.2132 100.827 30.4467 100.355 30.6397C98.8351 31.2236 96.773 31.575 94.3096 31.575C90.545 31.575 87.9742 30.7208 86.308 29.085C84.6067 27.413 83.918 24.8086 83.918 20.9184V10.9639C83.918 3.84873 87.2508 0.426474 94.4533 0.426474C96.6281 0.426474 99.1255 0.773781 100.718 1.32055C101.262 1.51533 101.37 1.78871 101.37 2.3701V5.55922C101.37 6.26281 101.116 6.41493 100.319 6.18326C99.0164 5.83267 96.9167 5.48067 95.2154 5.48067C91.1967 5.48067 89.6034 7.34838 89.6034 11.665V20.4528Z" fill="#4B5563"/>
<path d="M109.774 15.0891H112.563C114.264 15.0891 115.169 14.8938 115.857 14.2307C116.582 13.5323 116.835 12.326 116.835 10.4205V10.0712C116.835 8.39924 116.546 7.23395 115.821 6.57254C115.133 5.94944 114.046 5.71478 112.454 5.71478H109.774V15.0891ZM113.213 0.856649C119.115 0.856649 122.59 3.22719 122.59 9.8384V10.4993C122.59 15.2818 120.347 18.3921 117.269 19.3676C118.862 22.2805 121.144 26.7922 122.664 30.177C122.88 30.6809 122.772 31.1479 121.902 31.1479H118.03C117.305 31.1479 117.05 30.9925 116.799 30.4481C115.532 27.4143 113.829 23.5643 112.019 19.9492H109.774V30.4481C109.774 30.8752 109.556 31.1479 109.124 31.1479H104.743C104.308 31.1479 104.126 30.8752 104.126 30.4481V1.55654C104.126 1.16699 104.343 0.856649 104.743 0.856649H113.213Z" fill="#4B5563"/>
<path d="M124.507 8.70986C124.507 6.1409 125.376 4.08229 127.113 2.56546C128.707 1.20557 131.025 0.426474 134.1 0.426474C135.766 0.426474 137.722 0.737993 139.026 1.16567C139.676 1.39799 139.751 1.7101 139.751 2.25218V5.36697C139.751 6.02744 139.314 6.18326 138.662 6.02744C137.397 5.71346 135.912 5.48067 134.317 5.48067C132.98 5.48067 132.002 5.71346 131.349 6.1409C130.48 6.72733 130.083 7.61901 130.083 8.78589V8.94106C130.083 11.0817 130.951 12.1689 133.195 13.0262L135.115 13.8017C139.459 15.5527 141.305 17.9656 141.305 22.2792V22.67C141.305 28.0368 137.722 31.575 131.602 31.575C129.647 31.575 127.185 31.1853 125.628 30.601C124.976 30.3693 125.017 30.1159 124.761 29.5516L122.872 25.1409C122.801 24.597 123.162 24.403 123.777 24.6745C125.225 25.3379 128.96 26.5193 131.025 26.5193C134.172 26.5193 135.839 25.1596 135.839 22.8258V22.6303C135.839 20.5312 134.934 19.246 132.182 18.1971L130.444 17.538C126.752 16.1362 124.507 13.4135 124.507 8.98324V8.70986Z" fill="#4B5563"/>
</svg>
