<svg width="48" height="40" viewBox="0 0 48 40" fill="none" xmlns="http://www.w3.org/2000/svg">
<path d="M16.91 18.9651L16.9101 18.9652C16.9915 19.0899 17.0818 19.2278 17.1418 19.3176C18.1789 19.6656 19.1 20.1101 19.9774 20.5343L19.9774 20.5343C21.5171 21.2789 22.8213 21.9015 24.4343 21.8574M16.91 18.9651L24.4378 21.9823M16.91 18.9651C16.8309 18.8445 16.7601 18.7366 16.7349 18.7005L16.6324 18.772L16.7356 18.7014C15.7023 17.1904 15.1561 15.421 15.1561 13.5832C15.1561 8.57591 19.23 4.50148 24.2378 4.50148C29.2457 4.50148 33.3196 8.57539 33.3196 13.5832C33.3196 15.1685 32.9046 16.7291 32.1203 18.0954L32.1202 18.0955L32.0421 18.232M16.91 18.9651L32.0421 18.232M24.4343 21.8574C24.4343 21.8574 24.4343 21.8574 24.4344 21.8574L24.4378 21.9823M24.4343 21.8574C24.4342 21.8574 24.4342 21.8574 24.4341 21.8574L24.4378 21.9823M24.4343 21.8574C26.6118 21.7931 28.1875 20.8613 29.7369 19.9425L29.737 19.9424C30.3596 19.5739 30.9935 19.1991 31.6628 18.8902M24.4378 21.9823C26.6514 21.9171 28.2527 20.968 29.8006 20.05C30.4352 19.6744 31.075 19.2962 31.7506 18.9875M31.6628 18.8902C31.6554 18.9028 31.6488 18.914 31.6432 18.9235L31.7506 18.9875M31.6628 18.8902C31.6747 18.8847 31.6867 18.8793 31.6986 18.8738L31.7506 18.9875M31.6628 18.8902C31.7244 18.7854 31.8407 18.5828 31.9416 18.407C31.9782 18.3432 32.0128 18.283 32.042 18.2323L32.1505 18.2943M31.7506 18.9875C31.8042 18.8974 31.9376 18.6651 32.0507 18.468C32.0872 18.4045 32.1216 18.3446 32.1505 18.2943M32.1505 18.2943L32.0421 18.232M32.1505 18.2943L32.2287 18.1576L32.0421 18.232M9.8172 24.5189L9.81721 24.5189L9.89526 24.6166C11.2342 26.2846 12.5915 28.058 13.6143 29.7222C14.6338 31.3808 15.3353 32.953 15.3353 34.2134C15.3353 37.5845 12.5928 40.3265 9.22223 40.3265C5.85116 40.3265 3.10912 37.5845 3.10912 34.2134C3.10912 33.5762 3.29889 32.85 3.61698 32.0749C3.93559 31.2985 4.38609 30.4656 4.91489 29.6128C5.97234 27.9075 7.34917 26.1129 8.6283 24.5189H9.8172ZM9.8172 24.5189C9.6691 24.3336 9.4425 24.2454 9.22275 24.2454M9.8172 24.5189L9.22275 24.2454M9.22275 24.2454C9.00307 24.2454 8.77654 24.3335 8.62845 24.5187L9.22275 24.2454ZM47.8116 13.1811L47.8115 13.1809C42.7025 4.97578 33.8893 0.0765381 24.2378 0.0765381C14.5864 0.0765381 5.77314 4.97578 0.664173 13.1809L0.664075 13.1811C0.511063 13.4277 0.511063 13.7398 0.664075 13.9864L0.664173 13.9865C5.77314 22.1917 14.5864 27.0909 24.2378 27.0909C33.8893 27.0909 42.7025 22.1917 47.8115 13.9865L47.8116 13.9864C47.9646 13.7398 47.9646 13.4277 47.8116 13.1811ZM38.7899 21.1816C34.5594 24.0067 29.5328 25.5676 24.2378 25.5676C18.7205 25.5671 13.4938 23.8731 9.15618 20.819C11.62 20.1257 13.5002 20.0816 15.0741 20.3586C16.7028 20.6453 18.0111 21.2766 19.3137 21.9068L19.3138 21.9068L19.3218 21.9107C20.873 22.6607 22.3694 23.3843 24.2601 23.3843C24.3323 23.3843 24.4055 23.3833 24.4787 23.3812L24.4788 23.3811C27.0531 23.3056 28.9 22.2109 30.5067 21.2586L30.514 21.2543C30.514 21.2543 30.514 21.2542 30.514 21.2542C31.769 20.5106 32.8719 19.8599 34.1616 19.7193C35.4107 19.5831 36.8537 19.9252 38.7899 21.1816ZM9.24892 38.1579L9.24996 38.1579C9.67019 38.143 9.99923 37.7898 9.98435 37.3696C9.96948 36.9494 9.61224 36.6194 9.19623 36.6352C8.59483 36.6531 8.02064 36.4113 7.55578 35.9385C7.08521 35.459 6.82836 34.8293 6.85836 34.2594C6.88064 33.8392 6.55777 33.4804 6.13767 33.4581L6.13613 33.4581C5.72782 33.4414 5.35882 33.7563 5.33638 34.1788L5.33638 34.1789C5.28358 35.1783 5.70903 36.2332 6.46876 37.0063L6.46878 37.0063C7.19214 37.742 8.15509 38.1601 9.13002 38.1601C9.17031 38.1601 9.21084 38.159 9.24892 38.1579ZM40.1123 20.2353C37.4862 18.4166 35.4732 17.9914 33.7621 18.2398C34.4682 16.796 34.8435 15.2016 34.8435 13.5837C34.8435 7.73588 30.0862 2.97864 24.2384 2.97864C18.3905 2.97864 13.6333 7.73588 13.6333 13.5837C13.6333 15.4313 14.1112 17.2194 15.0141 18.8081C13.0833 18.5234 10.7382 18.6697 7.66894 19.6875C5.57799 17.9781 3.73334 15.9297 2.21417 13.5832C7.07722 6.07031 15.2746 1.5999 24.2378 1.5999C33.2011 1.5999 41.3985 6.0698 46.262 13.5832C44.5767 16.1866 42.4905 18.4226 40.1123 20.2353ZM19.3552 14.3454C19.7754 14.3454 20.1169 14.0046 20.1169 13.5837C20.1169 11.3112 21.9653 9.46231 24.2378 9.46231C24.6586 9.46231 25 9.12096 25 8.70062C25 8.28042 24.6592 7.93894 24.2384 7.93894C21.1258 7.93894 18.5936 10.4712 18.5936 13.5837C18.5936 14.0039 18.9344 14.3454 19.3552 14.3454ZM9.22275 38.8037C6.69222 38.8037 4.633 36.7445 4.633 34.2139C4.633 33.7218 4.8197 33.0946 5.13561 32.3899C5.45024 31.688 5.88738 30.9214 6.37584 30.1542C7.31329 28.6817 8.43377 27.2164 9.22349 26.2165C10.0234 27.2244 11.1439 28.679 12.0785 30.1438C12.5653 30.9067 13 31.6698 13.3127 32.3722C13.6265 33.0772 13.812 33.7094 13.812 34.2139C13.812 36.7445 11.7533 38.8037 9.22275 38.8037Z" fill="#046CC8" stroke="#046CC8" stroke-width="0.25"/>
</svg>
