<svg width="42" height="36" viewBox="0 0 42 36" fill="none" xmlns="http://www.w3.org/2000/svg">
<path d="M6.07123 35.8761C5.98808 36.094 5.78042 36.2283 5.56032 36.2283C5.49584 36.2283 5.43003 36.2167 5.366 36.1923M6.07123 35.8761L1.89678 30.9462C5.44302 28.3904 7.8648 25.7628 9.1285 23.1149C9.15037 23.165 9.17253 23.2149 9.195 23.2647M6.07123 35.8761C6.93164 33.619 8.01261 31.8599 9.3039 30.6047L6.07123 35.8761ZM5.366 36.1923C5.08364 36.0851 4.94224 35.7689 5.04985 35.487M5.366 36.1923L5.3214 36.309C5.32148 36.3091 5.32157 36.3091 5.32165 36.3091M5.366 36.1923L5.32165 36.3091M5.04985 35.487C6.69617 31.1686 9.13361 28.5178 12.3017 27.577C12.2664 27.5443 12.2312 27.5114 12.1963 27.4783M5.04985 35.487L4.93305 35.4425C6.57553 31.1341 9.0121 28.452 12.1963 27.4783M5.04985 35.487L1.18473 29.9577M12.1963 27.4783C12.2423 27.4642 12.2885 27.4504 12.3349 27.4371C11.0414 26.2261 9.99102 24.7591 9.2659 23.1169C9.24266 23.1662 9.21903 23.2155 9.195 23.2647M12.1963 27.4783C10.9405 26.2898 9.91511 24.8607 9.195 23.2647M9.195 23.2647C7.90667 25.9058 5.48289 28.5158 1.96986 31.0476L1.96983 31.0476C1.85087 31.1333 1.71352 31.1743 1.57751 31.1743C1.36954 31.1743 1.16348 31.0772 1.03233 30.8952L1.03224 30.8951C0.816007 30.5942 0.883605 30.1746 1.18473 29.9577M1.18473 29.9577C2.99458 28.6533 4.48874 27.3395 5.66947 26.0243C5.65953 26.0058 5.64954 25.9872 5.63953 25.9685C5.56829 25.8359 5.49572 25.7008 5.42885 25.5637C4.24301 23.1355 3.64201 20.5249 3.64201 17.8052C3.64201 8.04392 11.5827 0.103271 21.3435 0.103271C27.8378 0.103271 33.7767 3.63403 36.8875 9.33048C39.8028 11.141 41.6062 14.3711 41.6062 17.8056C41.6062 21.2401 39.8028 24.4694 36.8875 26.2799C33.7767 31.9763 27.8378 35.5071 21.3435 35.5071C17.2369 35.5071 13.2349 34.0687 10.0745 31.457C9.81099 31.2393 9.55552 31.0105 9.30606 30.7779M1.18473 29.9577L9.30606 30.7779M5.32165 36.3091C5.40008 36.339 5.48094 36.3533 5.56032 36.3533C5.83063 36.3533 6.0858 36.1885 6.18801 35.9207L6.18803 35.9206C7.02493 33.7252 8.06867 32.0113 9.30606 30.7779M5.32165 36.3091L9.30606 30.7779M5.82089 26.0425C4.62387 27.3876 3.10313 28.7291 1.2578 30.0591L36.7936 9.41936C33.709 3.74597 27.803 0.228271 21.3435 0.228271C11.6517 0.228271 3.76701 8.11296 3.76701 17.8052C3.76701 20.506 4.36374 23.0979 5.5412 25.5089C5.6069 25.6436 5.67779 25.7756 5.74872 25.9076C5.77284 25.9525 5.79696 25.9975 5.82089 26.0425ZM36.0396 25.2231L36.0395 25.2232C35.9342 25.2859 35.8479 25.376 35.7899 25.4848C32.9378 30.8382 27.4024 34.1637 21.3435 34.1637C17.5484 34.1637 13.8503 32.8345 10.93 30.4216C10.7275 30.2539 10.529 30.079 10.3337 29.9004C11.2838 29.2072 12.3322 28.7557 13.4764 28.5468C15.6824 30.1666 18.4029 31.1259 21.3435 31.1259C26.4374 31.1259 31.0746 28.2064 33.3036 23.6548C34.2186 23.6222 35.0099 22.9549 35.57 21.9323C36.1463 20.88 36.4939 19.427 36.4939 17.8056C36.4939 16.1842 36.1463 14.7312 35.57 13.679C35.0099 12.6563 34.2186 11.9891 33.3036 11.9565C31.0746 7.40487 26.4373 4.48583 21.3435 4.48583C13.9985 4.48583 8.02323 10.4611 8.02323 17.8061C8.02323 19.0457 8.19727 20.2445 8.51524 21.3838C8.13383 22.5517 7.49712 23.7272 6.60127 24.9045C5.52901 22.6819 4.98498 20.2942 4.98498 17.8061C4.98498 8.78628 12.3232 1.44758 21.3435 1.44758C27.4024 1.44758 32.9378 4.773 35.7899 10.1265L35.7901 10.1267C35.8477 10.2343 35.9333 10.3251 36.0396 10.3881C38.6444 11.9375 40.2628 14.7803 40.2628 17.8061C40.2632 20.8309 38.6448 23.6738 36.0396 25.2231ZM33.2086 11.9573C33.2076 11.9575 33.2094 11.9572 33.2117 11.9569L33.2086 11.9573ZM9.36664 17.8052C9.36664 11.2012 14.7395 5.82835 21.3435 5.82835C25.8571 5.82835 29.9723 8.378 32.0095 12.3692C31.4116 12.7888 30.9135 13.505 30.5602 14.4078C30.1877 15.3595 29.972 16.5289 29.972 17.8052C29.972 19.0814 30.1877 20.2508 30.5602 21.2026C30.9135 22.1054 31.4116 22.8216 32.0095 23.2412C29.9723 27.2328 25.8571 29.7824 21.3435 29.7824C14.7395 29.782 9.36664 24.4091 9.36664 17.8052ZM33.2332 22.3122C33.0339 22.3122 32.8144 22.2138 32.5917 22.0059C32.3695 21.7986 32.1527 21.4898 31.9623 21.091C31.5818 20.2939 31.3154 19.1548 31.3154 17.8052C31.3154 16.4555 31.5818 15.3164 31.9623 14.5191C32.1527 14.1203 32.3695 13.8114 32.5917 13.6041C32.8144 13.3961 33.0339 13.2977 33.2332 13.2977C33.4325 13.2977 33.652 13.3961 33.8747 13.604C34.0969 13.8113 34.3137 14.1201 34.5041 14.519C34.8846 15.3162 35.151 16.4553 35.151 17.8052C35.151 19.1548 34.8846 20.2939 34.5041 21.091C34.3137 21.4898 34.0969 21.7986 33.8747 22.0059C33.652 22.2138 33.4325 22.3122 33.2332 22.3122ZM13.1991 17.1337C12.8281 17.1337 12.5276 17.4342 12.5276 17.8052C12.5276 22.5547 16.3916 26.4187 21.1412 26.4187C21.5121 26.4187 21.8126 26.1182 21.8126 25.7472C21.8126 25.3763 21.5121 25.0757 21.1412 25.0757C17.1322 25.0757 13.8706 21.8141 13.8706 17.8052C13.8706 17.4342 13.5701 17.1337 13.1991 17.1337Z" fill="#046CC8" stroke="#046CC8" stroke-width="0.25"/>
</svg>
