<svg width="41" height="41" viewBox="0 0 41 41" fill="none" xmlns="http://www.w3.org/2000/svg">
<mask id="mask0_201_435" style="mask-type:alpha" maskUnits="userSpaceOnUse" x="0" y="0" width="41" height="41">
<rect x="0.530823" y="0.101486" width="40" height="40" fill="#D9D9D9"/>
</mask>
<g mask="url(#mask0_201_435)">
<path d="M10.3642 38.4348C9.02166 38.4348 7.88041 37.965 6.94041 37.0252C6.00068 36.0852 5.53082 34.944 5.53082 33.6015C5.53082 32.259 6.00068 31.1177 6.94041 30.1777C7.88041 29.238 9.02166 28.7682 10.3642 28.7682C10.753 28.7682 11.1003 28.8052 11.4058 28.8794C11.7114 28.9533 12.0169 29.0597 12.3225 29.1986L15.4754 25.2682C14.8643 24.5551 14.4151 23.745 14.1279 22.8377C13.841 21.9302 13.7715 20.9997 13.9196 20.0461L9.43374 18.5319C8.99846 19.2263 8.4336 19.7727 7.73916 20.1711C7.04471 20.5691 6.25305 20.7682 5.36416 20.7682C4.02166 20.7682 2.88041 20.2983 1.94041 19.3586C1.00068 18.4186 0.530823 17.2773 0.530823 15.9348C0.530823 14.5923 1.00068 13.4511 1.94041 12.5111C2.88041 11.5713 4.02166 11.1015 5.36416 11.1015C6.70666 11.1015 7.84791 11.5713 8.78791 12.5111C9.72763 13.4511 10.1975 14.5923 10.1975 15.9348V16.1569L14.7112 17.7127C15.2298 16.7866 15.8804 16.0505 16.6629 15.5044C17.4451 14.958 18.3178 14.5876 19.2808 14.3932V9.60149C18.1975 9.29593 17.3294 8.70107 16.6767 7.8169C16.0239 6.93246 15.6975 5.97176 15.6975 4.93482C15.6975 3.59232 16.1674 2.45107 17.1071 1.51107C18.0471 0.571348 19.1883 0.101486 20.5308 0.101486C21.8733 0.101486 23.0146 0.571348 23.9546 1.51107C24.8943 2.45107 25.3642 3.59232 25.3642 4.93482C25.3642 5.97176 25.0308 6.93246 24.3642 7.8169C23.6975 8.70107 22.8364 9.29593 21.7808 9.60149V14.3932C22.7439 14.5876 23.6212 14.958 24.4129 15.5044C25.2046 16.0505 25.8596 16.7866 26.3779 17.7127L30.8642 16.1569V15.9348C30.8642 14.5923 31.334 13.4511 32.2737 12.5111C33.2137 11.5713 34.355 11.1015 35.6975 11.1015C37.04 11.1015 38.1812 11.5713 39.1212 12.5111C40.061 13.4511 40.5308 14.5923 40.5308 15.9348C40.5308 17.2773 40.061 18.4186 39.1212 19.3586C38.1812 20.2983 37.04 20.7682 35.6975 20.7682C34.8086 20.7682 34.01 20.5691 33.3017 20.1711C32.5933 19.7727 32.0354 19.2263 31.6279 18.5319L27.1421 20.0461C27.2901 20.9997 27.2253 21.9279 26.9475 22.8307C26.6697 23.7334 26.216 24.5459 25.5862 25.2682L28.7392 29.1848C29.0447 29.0459 29.3503 28.9418 29.6558 28.8723C29.9614 28.8029 30.3046 28.7682 30.6854 28.7682C32.0454 28.7682 33.1929 29.238 34.1279 30.1777C35.0632 31.1177 35.5308 32.259 35.5308 33.6015C35.5308 34.944 35.061 36.0852 34.1212 37.0252C33.1812 37.965 32.04 38.4348 30.6975 38.4348C29.355 38.4348 28.2137 37.965 27.2737 37.0252C26.334 36.0852 25.8642 34.944 25.8642 33.6015C25.8642 33.0459 25.9451 32.5344 26.1071 32.0669C26.2693 31.5991 26.4939 31.1569 26.7808 30.7402L23.6279 26.8098C22.6535 27.3376 21.6136 27.6015 20.5083 27.6015C19.403 27.6015 18.3643 27.3376 17.3921 26.8098L14.2808 30.7682C14.5678 31.1848 14.7924 31.6223 14.9546 32.0807C15.1165 32.539 15.1975 33.0459 15.1975 33.6015C15.1975 34.944 14.7276 36.0852 13.7879 37.0252C12.8479 37.965 11.7067 38.4348 10.3642 38.4348ZM5.36499 17.9902C5.94777 17.9902 6.43596 17.7932 6.82957 17.399C7.22291 17.0048 7.41957 16.5165 7.41957 15.934C7.41957 15.3512 7.22249 14.863 6.82832 14.4694C6.43416 14.0761 5.94582 13.8794 5.36332 13.8794C4.78055 13.8794 4.29235 14.0765 3.89874 14.4707C3.50541 14.8648 3.30874 15.3532 3.30874 15.9357C3.30874 16.5184 3.50582 17.0066 3.89999 17.4002C4.29416 17.7936 4.78249 17.9902 5.36499 17.9902ZM10.365 35.6569C10.9478 35.6569 11.436 35.4598 11.8296 35.0657C12.2229 34.6715 12.4196 34.1832 12.4196 33.6007C12.4196 33.0179 12.2225 32.5297 11.8283 32.1361C11.4342 31.7427 10.9458 31.5461 10.3633 31.5461C9.78055 31.5461 9.29235 31.7432 8.89874 32.1373C8.50541 32.5315 8.30874 33.0198 8.30874 33.6023C8.30874 34.1851 8.50582 34.6733 8.89999 35.0669C9.29416 35.4602 9.78249 35.6569 10.365 35.6569ZM20.5317 6.99024C21.1144 6.99024 21.6026 6.79315 21.9962 6.39899C22.3896 6.00482 22.5862 5.51649 22.5862 4.93399C22.5862 4.35121 22.3892 3.86301 21.995 3.4694C21.6008 3.07607 21.1125 2.8794 20.53 2.8794C19.9472 2.8794 19.459 3.07649 19.0654 3.47065C18.6721 3.86482 18.4754 4.35315 18.4754 4.93565C18.4754 5.51843 18.6725 6.00662 19.0667 6.40024C19.4608 6.79357 19.9492 6.99024 20.5317 6.99024ZM20.5446 24.8236C21.6279 24.8236 22.5446 24.444 23.2946 23.6848C24.0446 22.9257 24.4196 22.0044 24.4196 20.9211C24.4196 19.8377 24.0437 18.9211 23.2921 18.1711C22.5401 17.4211 21.6197 17.0461 20.5308 17.0461C19.4567 17.0461 18.54 17.4219 17.7808 18.1736C17.0217 18.9255 16.6421 19.8459 16.6421 20.9348C16.6421 22.009 17.0217 22.9257 17.7808 23.6848C18.54 24.444 19.4612 24.8236 20.5446 24.8236ZM30.6983 35.6569C31.2811 35.6569 31.7693 35.4598 32.1629 35.0657C32.5562 34.6715 32.7529 34.1832 32.7529 33.6007C32.7529 33.0179 32.5558 32.5297 32.1617 32.1361C31.7675 31.7427 31.2792 31.5461 30.6967 31.5461C30.1139 31.5461 29.6257 31.7432 29.2321 32.1373C28.8387 32.5315 28.6421 33.0198 28.6421 33.6023C28.6421 34.1851 28.8392 34.6733 29.2333 35.0669C29.6275 35.4602 30.1158 35.6569 30.6983 35.6569ZM35.6983 17.9902C36.2811 17.9902 36.7693 17.7932 37.1629 17.399C37.5562 17.0048 37.7529 16.5165 37.7529 15.934C37.7529 15.3512 37.5558 14.863 37.1617 14.4694C36.7675 14.0761 36.2792 13.8794 35.6967 13.8794C35.1139 13.8794 34.6257 14.0765 34.2321 14.4707C33.8387 14.8648 33.6421 15.3532 33.6421 15.9357C33.6421 16.5184 33.8392 17.0066 34.2333 17.4002C34.6275 17.7936 35.1158 17.9902 35.6983 17.9902Z" fill="#1B57A6"/>
</g>
</svg>
