<svg width="24" height="24" viewBox="0 0 24 24" fill="none" xmlns="http://www.w3.org/2000/svg">
<mask id="mask0_137_519" style="mask-type:alpha" maskUnits="userSpaceOnUse" x="0" y="0" width="24" height="24">
<rect width="24" height="24" fill="#D9D9D9"/>
</mask>
<g mask="url(#mask0_137_519)">
<path d="M10.5498 16.5664L17.6165 9.49976L16.3831 8.28308L10.5498 14.1164L7.59982 11.1664L6.38314 12.3831L10.5498 16.5664ZM11.9998 21.9998C10.6276 21.9998 9.33316 21.7373 8.11649 21.2123C6.89983 20.6873 5.83871 19.972 4.93314 19.0664C4.02759 18.1609 3.31232 17.0998 2.78732 15.8831C2.26232 14.6664 1.99982 13.372 1.99982 11.9998C1.99982 10.6164 2.26232 9.31642 2.78732 8.09976C3.31232 6.88309 4.02759 5.82476 4.93314 4.92476C5.83871 4.02476 6.89983 3.31226 8.11649 2.78726C9.33316 2.26226 10.6276 1.99976 11.9998 1.99976C13.3832 1.99976 14.6832 2.26226 15.8998 2.78726C17.1165 3.31226 18.1748 4.02476 19.0748 4.92476C19.9748 5.82476 20.6873 6.88309 21.2123 8.09976C21.7373 9.31642 21.9998 10.6164 21.9998 11.9998C21.9998 13.372 21.7373 14.6664 21.2123 15.8831C20.6873 17.0998 19.9748 18.1609 19.0748 19.0664C18.1748 19.972 17.1165 20.6873 15.8998 21.2123C14.6832 21.7373 13.3832 21.9998 11.9998 21.9998Z" fill="#1B57A6"/>
</g>
</svg>
