<svg width="62" height="40" viewBox="0 0 62 40" fill="none" xmlns="http://www.w3.org/2000/svg">
<g clip-path="url(#clip0_141_651)">
<path d="M33.1538 26.8462C33.1538 26.3077 33.2307 25.7692 33.2307 25.3077C33.5384 20.6154 35.923 14.9231 40.2307 9.84615C47 1.84616 56.0769 -1.76923 61.5384 0.923074C56.8461 1.92307 51.5384 5.23077 47.2307 10.3846C46.3077 11.4615 45.4615 12.6154 44.6923 13.7692C45.2307 13.6923 45.7692 13.6923 46.2307 13.6923C53.4615 13.6923 59.3077 19.5385 59.3077 26.7692C59.3077 34 53.4615 39.8462 46.2307 39.8462C39.0769 39.9231 33.1538 34 33.1538 26.8462Z" fill="#D1D5DB"/>
<path d="M-1.14322e-06 26.8462C-1.19029e-06 26.3077 0.0769221 25.7692 0.0769221 25.3077C0.384614 20.6154 2.76923 14.9231 7.07692 9.84616C13.8462 1.84616 22.8461 -1.76923 28.3846 0.923074C23.6923 1.92307 18.3846 5.23077 14.0769 10.3846C13.1538 11.5385 12.3077 12.6923 11.5385 13.8462C12.0769 13.7692 12.6154 13.7692 13.0769 13.7692C20.3077 13.7692 26.1538 19.6154 26.1538 26.8462C26.1538 34.0769 20.3077 39.9231 13.0769 39.9231C5.84615 39.9231 -5.17812e-07 34 -1.14322e-06 26.8462Z" fill="#D1D5DB"/>
</g>
<defs>
<clipPath id="clip0_141_651">
<rect width="61.5385" height="40" fill="white" transform="matrix(1 -8.74228e-08 -8.74228e-08 -1 0 40)"/>
</clipPath>
</defs>
</svg>
