<svg width="1701" height="369" viewBox="0 0 1701 369" fill="none" xmlns="http://www.w3.org/2000/svg">
<path d="M204.7 138.4V223.1C204.7 273.9 229.9 308.2 284.1 331.2C338.3 308.2 363.5 273.8 363.5 223.1V138.4C347.2 136.2 317 132.8 284.1 132.8C251.2 132.8 221 136.1 204.7 138.4Z" fill="#1D1D1D"/>
<path d="M311.7 133.5V265.1L310.4 267.8V317.9C317 313.8 322.9 309.5 328.3 304.8V134.6C323 134.2 317.5 133.8 311.7 133.5Z" fill="#CCCCCC"/>
<path d="M256.5 265.6V133.5C250.7 133.8 245.2 134.2 239.9 134.6V304.4C245.2 309.1 251.2 313.5 257.8 317.6V267.5L256.5 265.6Z" fill="#CCCCCC"/>
<path d="M284.3 132.8C281.4 132.8 278.6 132.8 275.8 132.9V327.5C278.5 328.8 281.4 330.1 284.3 331.3C287.1 330.1 289.8 328.9 292.4 327.7V132.8C289.7 132.8 287 132.8 284.3 132.8Z" fill="#CCCCCC"/>
<path d="M349.3 94.0001C374.5 85.6001 380.7 80.7001 379.8 65.6001C376.9 71.9001 364.2 78.7001 354.9 81.5001C349.8 83.0001 347.3 82.4001 345.8 80.6001C348 79.9001 350.1 79.3001 352 78.5001C377.5 67.1001 381.1 59.6001 379.4 43.5001C376.3 53.8001 363.9 63.7001 348.6 67.5001C345.3 68.3001 343.3 68.4001 341.9 66.5001C347.5 64.4001 350.5 63.0001 355.5 60.0001C372.9 49.5001 376.7 40.2001 372.5 23.9001C370.5 37.6001 355.1 50.5001 328.5 59.6001C316.1 63.8001 315.5 66.6001 317.2 71.5001C318.9 76.5001 317.9 84.1001 312.2 83.4001C301.6 82.1001 304.2 58.9001 309.9 48.7001C316.6 48.0001 320.6 46.2001 322.2 44.5001C329.9 49.4001 334.5 48.0001 336.5 47.3001C333.2 45.9001 327.8 40.3001 327.8 40.3001C336.1 34.3001 342.1 35.7001 343.2 37.1001C342.5 30.4001 335.9 29.0001 328.2 31.8001C327.2 26.9001 321.2 23.6001 310.2 24.4001C305.9 24.8001 299.5 22.3001 297.9 18.1001C296.9 20.9001 296.7 26.0001 300 28.8001C297 29.5001 293.5 28.8001 292.2 26.7001C291.4 30.0001 293.2 34.2001 296 35.5001C293.2 35.7001 289.2 37.6001 288.3 41.6001C290.2 41.2001 292.6 40.7001 294.8 41.8001C290.8 43.2001 288.5 45.8001 287.5 49.2001C288.7 48.9001 291.2 48.7001 292.3 49.4001C289.4 52.2001 285.2 56.6001 284.4 66.2001C283.6 56.6001 279.4 52.2001 276.5 49.4001C277.7 48.7001 280.1 48.9001 281.3 49.2001C280.3 45.9001 278 43.2001 274 41.8001C276.2 40.7001 278.6 41.3001 280.5 41.6001C279.6 37.6001 275.7 35.6001 272.8 35.5001C275.6 34.3001 277.5 30.1001 276.6 26.7001C275.3 28.8001 271.8 29.5001 268.8 28.8001C272.1 26.0001 271.9 20.9001 270.9 18.1001C269.2 22.3001 262.9 24.8001 258.6 24.4001C247.6 23.5001 241.6 26.9001 240.6 31.8001C232.9 29.0001 226.3 30.4001 225.6 37.1001C226.6 35.7001 232.6 34.3001 241 40.3001C241 40.3001 235.7 45.9001 232.3 47.3001C234.3 48.0001 239 49.4001 246.6 44.5001C248.3 46.3001 252.3 48.0001 258.9 48.7001C264.6 58.9001 267.2 82.1001 256.6 83.4001C250.9 84.1001 249.9 76.5001 251.6 71.5001C253.3 66.6001 252.6 63.8001 240.3 59.6001C213.6 50.5001 198.3 37.5001 196.2 23.9001C192 40.2001 195.9 49.5001 213.2 60.0001C218.1 63.0001 221.1 64.4001 226.8 66.5001C225.4 68.4001 223.3 68.2001 220.1 67.5001C204.7 63.8001 192.3 53.9001 189.3 43.5001C187.5 59.6001 191.1 67.1001 216.7 78.5001C218.5 79.3001 220.7 80.0001 222.9 80.6001C221.4 82.4001 219 83.1001 213.8 81.5001C204.5 78.7001 191.7 71.9001 188.9 65.6001C188 80.7001 194.2 85.6001 219.4 94.0001C216.1 98.7001 200.3 94.3001 196.7 89.6001C197.8 101.5 204.4 105.5 223.6 107.8C220 111.1 210.5 110.8 207.2 109.4C210.4 116.5 211.1 122.1 233.8 118.4C231.1 113.5 232.9 108.6 234.6 104.9C235.9 109.1 238.6 114.9 242.4 116.3C245.2 111.1 245.4 101 239.5 96.9001C243.3 96.8001 254 100.6 254.7 110.9C256 103.6 260.7 97.0001 265 95.3001C262.4 102.2 266.4 108.3 269.6 112.8C273.7 109.5 276.9 99.3001 273.9 91.1001C277.2 93.3001 283.9 100.9 284.6 112.3C289.7 106.1 289 92.3001 298.4 87.9001C293.7 98.6001 296.3 109.1 300.4 112.4C303.5 107.9 308.1 101.1 305.5 94.2001C309.8 95.8001 313.2 103.6 314.5 110.9C315.2 100.6 325.9 96.9001 329.7 96.9001C323.8 101 324 111.1 326.8 116.3C330.6 114.9 333.2 109.1 334.6 104.9C336.3 108.6 338.1 113.5 335.4 118.4C358.1 122.1 358.8 116.5 362 109.4C358.7 110.8 349.2 111 345.6 107.8C364.8 105.5 371.4 101.5 372.5 89.6001C368.4 94.3001 352.6 98.7001 349.3 94.0001ZM315.8 31.3001C318.7 30.5001 320.5 30.2001 322 32.0001C320.9 31.9001 320 32.1001 319.2 32.4001C319.5 32.8001 319.7 33.3001 319.7 33.9001C319.7 35.3001 318.7 36.3001 317.4 36.3001C316.1 36.3001 315.1 35.2001 315.1 33.9001C315.1 33.8001 315.1 33.8001 315.1 33.7001C313.5 33.8001 311.5 33.3001 310.7 31.3001C312 31.8001 314 31.8001 315.8 31.3001ZM253.1 33.7001C253.1 33.8001 253.1 33.8001 253.1 33.9001C253.1 35.3001 252.1 36.3001 250.8 36.3001C249.5 36.3001 248.5 35.2001 248.5 33.9001C248.5 33.3001 248.7 32.8001 249 32.4001C248.2 32.1001 247.3 31.9001 246.2 32.0001C247.7 30.2001 249.5 30.5001 252.4 31.3001C254.2 31.8001 256.2 31.8001 257.6 31.3001C256.7 33.4001 254.8 33.8001 253.1 33.7001Z" fill="#BBBBBB"/>
<mask id="mask0_792_795" style="mask-type:luminance" maskUnits="userSpaceOnUse" x="204" y="132" width="160" height="200">
<path d="M204.7 138.4V223.1C204.7 273.9 229.9 308.2 284.1 331.2C338.3 308.2 363.5 273.8 363.5 223.1V138.4C347.2 136.2 317 132.8 284.1 132.8C251.2 132.8 221 136.1 204.7 138.4Z" fill="white"/>
</mask>
<g mask="url(#mask0_792_795)">
<path d="M213 212.3C201.7 212.3 190.4 208 181.9 199.4C164.7 182.2 164.8 154.3 181.9 137.2C199.1 120 227 120.1 244.1 137.2C261.3 154.4 261.2 182.3 244.1 199.4C235.5 208 224.2 212.3 213 212.3Z" fill="#EAB500"/>
<path d="M213 130.6C203.3 130.6 193.7 134.3 186.3 141.6C171.6 156.3 171.6 180.2 186.3 195C201 209.7 224.9 209.7 239.7 195C254.4 180.3 254.4 156.4 239.7 141.6C232.3 134.2 222.6 130.6 213 130.6Z" fill="#FFDE30"/>
<path d="M246.4 110.5L229.8 127.7L231.8 135.6L246.4 110.5Z" fill="#FFE955"/>
<path d="M246.4 110.5L239.8 133.4L231.8 135.6L246.4 110.5Z" fill="#FFCD00"/>
<path d="M252.5 128.8L239.8 133.4L239.7 141.6L252.5 128.8Z" fill="#FFE955"/>
<path d="M252.5 128.8L247.9 141.6H239.7L252.5 128.8Z" fill="#FFCD00"/>
<path d="M271.9 134.4L247.9 141.6L245.7 149.5L271.9 134.4Z" fill="#FFE955"/>
<path d="M271.9 134.4L253.6 151.5L245.7 149.5L271.9 134.4Z" fill="#FFCD00"/>
<path d="M267 153.9L253.6 151.5L249.4 158.6L267 153.9Z" fill="#FFE955"/>
<path d="M267 153.9L256.6 162.7L249.4 158.6L267 153.9Z" fill="#FFCD00"/>
<path d="M281 168.4L256.6 162.6L250.7 168.4H281Z" fill="#FFE955"/>
<path d="M281 168.4L256.6 174.2L250.7 168.4H281Z" fill="#FFCD00"/>
<path d="M267 182.9L256.6 174.1L249.4 178.2L267 182.9Z" fill="#FFE955"/>
<path d="M267 182.9L253.6 185.3L249.4 178.2L267 182.9Z" fill="#FFCD00"/>
<path d="M271.8 202.4L253.6 185.2L245.6 187.3L271.8 202.4Z" fill="#FFE955"/>
<path d="M271.8 202.4L247.8 195.2L245.6 187.3L271.8 202.4Z" fill="#FFCD00"/>
<path d="M252.5 208L247.8 195.2L239.6 195.1L252.5 208Z" fill="#FFE955"/>
<path d="M252.5 208L239.7 203.3L239.6 195.1L252.5 208Z" fill="#FFCD00"/>
<path d="M246.9 227.3L239.7 203.3L231.8 201.1L246.9 227.3Z" fill="#FFE955"/>
<path d="M246.9 227.3L229.7 209.1L231.8 201.1L246.9 227.3Z" fill="#FFCD00"/>
<path d="M227.4 222.4L229.7 209.1L222.7 204.9L227.4 222.4Z" fill="#FFE955"/>
<path d="M227.4 222.4L218.6 212L222.7 204.9L227.4 222.4Z" fill="#FFCD00"/>
<path d="M212.9 236.4L218.6 212L212.9 206.2V236.4Z" fill="#FFE955"/>
<path d="M212.9 236.4L207.1 212L212.9 206.2V236.4Z" fill="#FFCD00"/>
<path d="M198.4 222.4L207.1 212L203.1 204.9L198.4 222.4Z" fill="#FFE955"/>
</g>
<mask id="mask1_792_795" style="mask-type:luminance" maskUnits="userSpaceOnUse" x="204" y="132" width="160" height="200">
<path d="M204.7 138.4V223.1C204.7 273.9 229.9 308.2 284.1 331.2C338.3 308.2 363.5 273.8 363.5 223.1V138.4C347.2 136.2 317 132.8 284.1 132.8C251.2 132.8 221 136.1 204.7 138.4Z" fill="white"/>
</mask>
<g mask="url(#mask1_792_795)">
<path d="M283.8 356.5C272.5 356.5 261.2 352.2 252.6 343.6C235.4 326.4 235.4 298.4 252.6 281.2C269.8 264 297.8 264 315 281.2C323.3 289.5 327.9 300.6 327.9 312.4C327.9 324.2 323.3 335.3 315 343.6C306.4 352.2 295.1 356.5 283.8 356.5Z" fill="#EAB500"/>
<path d="M283.8 274.7C274.1 274.7 264.5 278.4 257.1 285.7C242.4 300.4 242.4 324.3 257.1 339.1C271.8 353.8 295.7 353.8 310.5 339.1C317.6 332 321.5 322.5 321.6 312.4C321.6 302.3 317.7 292.8 310.6 285.7C303.2 278.4 293.5 274.7 283.8 274.7Z" fill="#FFDE30"/>
<path d="M224.9 346.3L243.2 329.2L251.1 331.2L224.9 346.3Z" fill="#FFCD00"/>
<path d="M229.8 326.8L243.2 329.2L247.4 322.1L229.8 326.8Z" fill="#FFE955"/>
<path d="M229.8 326.8L240.2 318.1L247.4 322.1L229.8 326.8Z" fill="#FFCD00"/>
<path d="M215.8 312.3L240.2 318.1L246.1 312.3H215.8Z" fill="#FFE955"/>
<path d="M215.8 312.3L240.2 306.6L246.1 312.3H215.8Z" fill="#FFCD00"/>
<path d="M229.8 297.8L240.2 306.6L247.4 302.5L229.8 297.8Z" fill="#FFE955"/>
<path d="M229.8 297.8L243.2 295.5L247.4 302.5L229.8 297.8Z" fill="#FFCD00"/>
<path d="M225 278.3L243.2 295.5L251.2 293.4L225 278.3Z" fill="#FFE955"/>
<path d="M225 278.3L249 285.5L251.2 293.4L225 278.3Z" fill="#FFCD00"/>
<path d="M244.3 272.7L249 285.5L257.2 285.6L244.3 272.7Z" fill="#FFE955"/>
<path d="M244.3 272.7L257.1 277.4L257.2 285.6L244.3 272.7Z" fill="#FFCD00"/>
<path d="M249.9 253.4L257.1 277.4L265 279.6L249.9 253.4Z" fill="#FFE955"/>
<path d="M249.9 253.4L267.1 271.6L265 279.6L249.9 253.4Z" fill="#FFCD00"/>
<path d="M269.4 258.3L267.1 271.6L274.1 275.8L269.4 258.3Z" fill="#FFE955"/>
<path d="M269.4 258.3L278.2 268.7L274.1 275.8L269.4 258.3Z" fill="#FFCD00"/>
<path d="M283.9 244.3L278.2 268.7L283.9 274.5V244.3Z" fill="#FFE955"/>
<path d="M283.9 244.3L289.7 268.7L283.9 274.5V244.3Z" fill="#FFCD00"/>
<path d="M298.4 258.3L289.7 268.7L293.7 275.8L298.4 258.3Z" fill="#FFE955"/>
<path d="M298.4 258.3L300.8 271.7L293.7 275.8L298.4 258.3Z" fill="#FFCD00"/>
<path d="M317.3 254.5L300.8 271.7L302.8 279.6L317.3 254.5Z" fill="#FFE955"/>
<path d="M317.3 254.5L310.7 277.4L302.8 279.6L317.3 254.5Z" fill="#FFCD00"/>
<path d="M323.5 272.8L310.7 277.4V285.6L323.5 272.8Z" fill="#FFE955"/>
<path d="M323.5 272.8L318.9 285.6H310.7L323.5 272.8Z" fill="#FFCD00"/>
<path d="M342.9 278.4L318.9 285.6L316.7 293.5L342.9 278.4Z" fill="#FFE955"/>
<path d="M342.9 278.4L324.6 295.5L316.7 293.5L342.9 278.4Z" fill="#FFCD00"/>
<path d="M338 297.9L324.6 295.5L320.4 302.6L338 297.9Z" fill="#FFE955"/>
<path d="M338 297.9L327.6 306.6L320.4 302.6L338 297.9Z" fill="#FFCD00"/>
<path d="M352 312.4L327.6 306.6L321.7 312.4H352Z" fill="#FFE955"/>
<path d="M352 312.4L327.6 318.1L321.7 312.4H352Z" fill="#FFCD00"/>
<path d="M338 326.9L327.6 318.1L320.4 322.2L338 326.9Z" fill="#FFE955"/>
<path d="M338 326.9L324.6 329.3L320.4 322.2L338 326.9Z" fill="#FFCD00"/>
<path d="M342.8 346.4L324.6 329.2L316.6 331.3L342.8 346.4Z" fill="#FFE955"/>
</g>
<mask id="mask2_792_795" style="mask-type:luminance" maskUnits="userSpaceOnUse" x="204" y="132" width="160" height="200">
<path d="M204.7 138.4V223.1C204.7 273.9 229.9 308.2 284.1 331.2C338.3 308.2 363.5 273.8 363.5 223.1V138.4C347.2 136.2 317 132.8 284.1 132.8C251.2 132.8 221 136.1 204.7 138.4Z" fill="white"/>
</mask>
<g mask="url(#mask2_792_795)">
<path d="M354.8 212.3C343.5 212.3 332.3 208 323.7 199.4C306.5 182.2 306.5 154.3 323.7 137.2C340.8 120 368.8 120 385.9 137.2C403.1 154.4 403.1 182.3 385.9 199.4C377.4 208 366.1 212.3 354.8 212.3Z" fill="#EAB500"/>
<path d="M354.8 130.6C345.1 130.6 335.5 134.3 328.1 141.6C313.4 156.3 313.4 180.3 328.1 195C342.8 209.7 366.8 209.7 381.5 195C396.2 180.3 396.2 156.3 381.5 141.6C374.1 134.2 364.5 130.6 354.8 130.6Z" fill="#FFDE30"/>
<path d="M321.4 110.5L338 127.7L335.9 135.6L321.4 110.5Z" fill="#FFE955"/>
<path d="M321.4 110.5L328 133.4L335.9 135.6L321.4 110.5Z" fill="#FFCD00"/>
<path d="M315.3 128.8L328 133.4L328.1 141.6L315.3 128.8Z" fill="#FFE955"/>
<path d="M315.3 128.8L319.9 141.6H328.1L315.3 128.8Z" fill="#FFCD00"/>
<path d="M295.9 134.4L319.9 141.6L322.1 149.5L295.9 134.4Z" fill="#FFE955"/>
<path d="M295.9 134.4L314.2 151.5L322.1 149.5L295.9 134.4Z" fill="#FFCD00"/>
<path d="M300.8 153.9L314.2 151.5L318.3 158.6L300.8 153.9Z" fill="#FFE955"/>
<path d="M300.8 153.9L311.2 162.7L318.3 158.6L300.8 153.9Z" fill="#FFCD00"/>
<path d="M286.8 168.4L311.2 162.6L317.1 168.4H286.8Z" fill="#FFE955"/>
<path d="M286.8 168.4L311.2 174.2L317.1 168.4H286.8Z" fill="#FFCD00"/>
<path d="M300.8 182.9L311.2 174.1L318.4 178.2L300.8 182.9Z" fill="#FFE955"/>
<path d="M300.8 182.9L314.2 185.3L318.4 178.2L300.8 182.9Z" fill="#FFCD00"/>
<path d="M295.9 202.4L314.2 185.2L322.1 187.3L295.9 202.4Z" fill="#FFE955"/>
<path d="M295.9 202.4L320 195.2L322.1 187.3L295.9 202.4Z" fill="#FFCD00"/>
<path d="M315.3 208L319.9 195.2L328.2 195.1L315.3 208Z" fill="#FFE955"/>
<path d="M315.3 208L328.1 203.3L328.2 195.1L315.3 208Z" fill="#FFCD00"/>
<path d="M320.9 227.3L328.1 203.3L336 201.1L320.9 227.3Z" fill="#FFE955"/>
<path d="M320.9 227.3L338.1 209.1L336 201.1L320.9 227.3Z" fill="#FFCD00"/>
<path d="M340.4 222.4L338 209.1L345.1 204.9L340.4 222.4Z" fill="#FFE955"/>
<path d="M340.4 222.4L349.2 212L345.1 204.9L340.4 222.4Z" fill="#FFCD00"/>
<path d="M354.9 236.4L349.2 212L354.9 206.2V236.4Z" fill="#FFE955"/>
<path d="M354.9 236.4L360.7 212L354.9 206.2V236.4Z" fill="#FFCD00"/>
<path d="M369.4 222.4L360.7 212L364.7 204.9L369.4 222.4Z" fill="#FFE955"/>
</g>
<path d="M149.7 108.6C146.8 114.7 137.8 114.7 137.5 121.7C134.9 118.8 133.1 117.6 123.5 117.6C113.9 117.6 112.2 118.8 109.5 121.7C109.2 114.7 100.2 114.7 97.3001 108.6C94.7001 113.8 95.3001 125 103.4 129.7C103.4 134.6 101.2 137.2 102.2 141.8C103 145.6 105.8 147.6 106.9 151.8C106.1 152.6 100.4 156 99.8001 160C99.5001 162.2 100.1 164.8 101.6 167.6C102.5 164.7 107.2 160.1 110.3 160C108.7 161.9 105.5 167.8 105.8 171.8C106 174.4 108.6 178.8 111 179.6C110.4 175.2 114.7 169 118.3 168C116.1 174.5 116.6 178.2 123.6 183.7C130.5 178.2 131.1 174.5 128.9 168C132.5 169 136.8 175.5 136.2 179.8C138.5 178.9 141.1 174.3 141.3 171.7C141.6 167.7 138.4 161.9 136.8 159.9C139.9 160 143.3 163.7 144.2 166.6C145.6 163.8 146.7 161.5 146.4 159.3C145.8 155.4 140.9 152.5 140.2 151.7C141.3 147.4 144 145.4 144.9 141.7C145.9 137.1 143.7 134.6 143.7 129.6C151.8 125 152.3 113.8 149.7 108.6ZM105.2 127.2C101.9 124.6 103.8 118.5 99.8001 116.3C102.5 116.8 109.3 120.8 105.2 127.2ZM112 134.2C112 133.5 112.2 132.9 112.6 132.4C111.1 131.7 109.7 130.5 108.9 128.1C111 130.4 115.5 130.1 118.5 130.8C120.8 131.4 122.1 132.7 121.5 135.7C121.2 134.2 120.1 133.6 119 133.3C119 133.4 119.1 134 119.1 134.1C119.1 135.8 117.5 137.3 115.6 137.3C113.6 137.4 112 135.9 112 134.2ZM123.5 166.8C122.1 163.9 119.2 161.2 117.3 160.4C119.5 158.2 120 155.8 120.3 153.7C121.6 153.7 122.6 153.5 123.6 152.9C124.5 153.5 125.5 153.7 126.9 153.7C127.2 155.8 127.6 158.2 129.9 160.4C127.8 161.2 124.9 163.9 123.5 166.8ZM123.6 150.1C118.4 153.5 113.2 150.7 114 146.1C114.9 148.4 118.9 149.6 121 147C123 144.4 120.3 141.8 117.8 140.9C119.3 140 121.3 140 123.7 140C126 140 128.1 140 129.6 140.9C127.1 141.8 124.4 144.4 126.4 147C128.4 149.6 132.5 148.5 133.4 146.1C134 150.7 129.9 153.1 123.6 150.1ZM134.5 132.4C134.9 132.9 135.1 133.5 135.1 134.2C135.1 135.9 133.5 137.4 131.6 137.4C129.7 137.4 128.1 136 128.1 134.2C128.1 134.1 128.1 133.5 128.2 133.4C127.1 133.7 126 134.3 125.7 135.8C125 132.7 126.4 131.4 128.7 130.9C131.7 130.1 136.2 130.4 138.3 128.2C137.4 130.5 136 131.7 134.5 132.4ZM141.9 127.2C137.8 120.8 143.4 117.6 146 117.2C142 119.3 145 124.6 141.9 127.2Z" fill="#BBBBBB"/>
<path d="M117 132.8L114.4 132.5C113.8 133.4 114 134.7 115.5 134.9C116.8 135.1 117.3 133.7 117 132.8Z" fill="#BBBBBB"/>
<path d="M131.6 135C133.1 134.8 133.2 133.5 132.7 132.6L130.1 132.9C129.8 133.7 130.3 135.1 131.6 135Z" fill="#BBBBBB"/>
<path d="M185.5 261.3C185.5 259.2 185.8 255.2 190.8 252.6C187.9 250.8 185 251 182.2 253.3C177.3 252 175.3 255.5 174.2 259.3C172.9 264 173.9 268.4 171.8 270.2C164.2 274 152.5 272.8 154 268.8C154.9 266.3 160.5 250.4 159.4 241.3C158.8 236.1 154.8 234.1 149.4 235.7C134.6 240 118.5 238.6 115.1 237.1C118.2 228.5 123.2 226.9 130.7 222.3C121 218.3 111.8 211.4 112.5 205.4C124.1 214.2 139.2 219.6 148.5 220.1C151.7 219.7 165.5 212.7 175 209.4C176.6 208.8 182.4 208 185.2 203.8C188.3 199.3 188.5 191.5 188.5 190.5C188.5 187.4 188.7 178.9 190.7 176.7C188 176.5 185 178.6 183.5 181.9C182.7 179.6 184.8 173 186.2 171.9C184 170.6 178 173.4 177.2 177.6C173 177.4 171.6 181.6 171.4 186.1C171.2 189.7 173.9 198 169.2 199.7C163.7 201.7 158.9 203.4 154.3 201.9C150.6 200.7 143.7 197.1 138.3 194.3C140.5 191.7 148.1 194.1 152.5 196.2C158 186.5 162.1 184.5 165.4 178.8C177.2 158.5 174.3 143.8 178.7 138.1C183 131.8 184.3 128 184.4 125.6C185.4 126.6 186.2 127.3 186.7 127.7C188.5 129.3 192.5 124.5 190 122.4C189.4 121.9 188.3 120.9 186.8 119.4C188.1 119.1 189.4 119.1 190.5 119.5C189.8 114.9 185.3 114.5 182 114.9C181.9 114.9 181.9 114.8 181.8 114.8C182.4 113.4 183.4 112.4 185.1 111.6C184.8 110.5 182.7 109.6 180.4 109.4C182.8 100.9 177.9 91.7002 162 95.9002C157.4 91.5002 152.6 86.9002 148.1 82.5002C150.1 77.7002 150.6 73.6002 149.8 70.5002C149 67.3002 147.1 63.3002 140.9 62.3002C136.6 61.6002 133.3 63.1002 130.6 65.6002C125.2 60.4002 121.8 57.1002 121.8 57.1002C119.2 54.9002 115.9 60.7002 116.8 61.8002C116.8 61.8002 120.6 65.4002 126.4 70.9002C125.1 73.0002 123.9 75.2002 122.9 77.2002C121.8 79.4002 120.6 81.6002 119.4 83.3002C118.9 84.0002 118.4 84.6002 117.8 85.1002C117.7 85.2002 117.5 85.3002 117.4 85.4002C115.5 86.7002 114.9 86.3002 112.5 84.8002C110.3 83.4002 108.9 81.9002 104.3 82.2002C102.4 82.3002 100.7 82.9002 99.5001 83.6002C97.9001 84.5002 96.2001 85.2002 95.9001 86.6002C95.9001 86.8002 95.8001 86.9002 95.8001 87.1002C91.4001 87.2002 88.4001 90.9002 83.4001 88.9002C87.6001 92.4002 90.5001 89.2002 95.3001 88.6002C90.7001 89.9002 87.3001 94.8002 82.2001 93.1002C88.4001 96.4002 91.0001 91.2002 96.2001 89.5002C97.2001 91.7002 99.9001 93.3002 103.4 93.7002C110.5 94.5002 117.9 93.4002 122.1 89.0002C124.5 86.5002 126.7 83.4002 128.7 79.5002C129.5 77.9002 130.3 76.4002 131.1 75.2002C134.1 78.1002 137.5 81.2002 141 84.6002C136 98.1002 142.2 107.7 158.9 101.5C162.3 104.8 165.7 107.9 168.8 110.9C166.6 113.6 164.8 118.2 165.2 121.1C165.9 125.8 167.7 128.9 166.3 136.7C164.5 146.9 157.7 161.4 151.4 162.1C150.7 165.7 148 168.9 146.3 170.1C146.7 173.2 144.1 181.7 134.1 185.9C134.5 184.3 133 182.3 132.3 181C131.6 183 128.5 186.1 123.8 188.8C120.9 187.9 116.7 183.5 115.3 181C114.2 181.7 112.4 185.2 112.4 186.8C108.6 185 101.3 178.3 101.3 172.3C94.4001 169.6 86.7001 162.6 91.3001 147.4C93.5001 140.1 93.2001 137.2 81.1001 125.6C77.7001 122.4 68.1001 113.1 60.3001 103.9C56.8001 99.8002 53.1001 94.8002 52.1001 91.1002C46.9001 101.6 48.1001 107.5 54.8001 115.8C60.5001 122.8 64.5001 125.9 72.4001 134.4C70.8001 136 69.4001 135.6 65.3001 132.6C61.2001 129.5 52.6001 123.6 46.5001 117.6C42.7001 113.8 38.5001 109.1 37.2001 105.6C32.5001 116.8 34.7001 122.3 42.0001 130C48.3001 136.5 56.7001 142 65.9001 149.1C64.7001 150.7 62.1001 150.2 59.8001 149.1C57.5001 148 48.2001 143.4 41.9001 139.8C37.6001 137.3 32.0001 133.9 29.7001 130.3C27.9001 142.4 30.4001 146.2 38.6001 151.6C46.6001 156.9 53.9001 160 63.8001 164.2C63.4001 166 61.4001 166.9 57.3001 165.8C52.0001 164.7 46.4001 162.7 40.6001 160.5C36.0001 158.7 32.3001 157.1 29.8001 154.6C30.1001 165.4 33.5001 168.9 42.6001 172.5C50.4001 175.6 58.0001 176.7 68.0001 179.2C67.8001 180.8 64.4001 182.3 53.8001 181.1C49.5001 180.6 44.5001 179.8 41.8001 178.2C44.1001 187 47.8001 189.2 56.4001 190.4C56.4001 190.4 67.1001 191.3 69.5001 191.1C68.4001 194 62.8001 195.1 54.1001 194.9C57.7001 201.4 63.0001 202.9 74.8001 200.2C74.8001 201.8 73.7001 204.2 67.5001 206.2C70.4001 209.8 75.1001 214 86.2001 205.8C87.5001 208 86.0001 210.7 83.1001 212.9C89.6001 217.3 94.7001 213.8 101.1 204.9C99.0001 216.8 93.1001 230.4 85.8001 241.2C78.3001 252.4 62.8001 264.2 48.6001 258.5C52.8001 265.2 66.0001 274 83.8001 259.2C77.9001 271.1 80.0001 287.8 58.8001 299.5C61.7001 302.4 71.3001 315.3 63.0001 328.4C58.4001 335.7 65.1001 337.9 74.2001 338.3C81.8001 338.7 93.0001 337.9 96.2001 342.2C97.5001 338.5 96.8001 335.3 93.7001 333.6C97.4001 333.2 101.6 333.9 103.3 338.7C106 335.8 104.9 331.1 100.9 328.5C100.8 325.6 99.0001 322.2 95.0001 322.2C89.2001 322.3 89.3001 324.7 81.1001 324.9C77.5001 325 77.1001 309.5 78.0001 302.8C79.2001 294.4 105.6 289.7 110.9 279.7C114.6 272.7 118.8 254.1 108.4 244.6C114.7 243.2 121.4 255 120.1 265.3C128.7 263.2 139.8 255.3 140.2 261.1C140.6 267.7 141.3 284.7 137 290.4C160.3 278.9 174.7 286.1 180.6 285.2C184.8 284.6 184.8 284.9 186.6 281.2C187.5 279.3 188 273.1 189.2 269.1C190.4 265.1 191.9 261 194.2 260.3C191.1 257.6 187.3 258.7 185.5 261.3ZM101.1 87.0002C101.3 83.9002 106.2 84.3002 107.6 87.2002C105.8 86.8002 102.9 87.0002 101.1 87.0002ZM143.6 78.0002C140.6 75.1002 137.8 72.4002 135.3 70.0002C136.7 69.0002 138.1 68.5002 139.8 68.8002C143.7 69.4002 144.8 73.4002 143.6 78.0002ZM145.7 89.0002C148.6 91.7002 151.5 94.5002 154.4 97.2002C146.2 99.3002 144.7 94.5002 145.7 89.0002ZM166.4 99.9002C174.4 98.4002 176.3 103.9 175.1 108.2C172.4 105.7 169.5 102.9 166.4 99.9002ZM87.6001 185.7C81.6001 185 79.6001 178.4 81.6001 174.7C74.9001 171.7 74.3001 166 77.3001 161C76.5001 167.2 80.6001 172.7 85.3001 173C84.3001 177.7 84.3001 182.7 90.6001 183C90.9001 188.3 91.3001 194.3 102.3 195C91.3001 198 87.0001 190 87.6001 185.7Z" fill="#BBBBBB"/>
<path d="M424.6 129.7C424.6 134.6 422.4 137.2 423.4 141.8C424.2 145.6 427 147.6 428.1 151.8C427.3 152.6 422.4 155.4 421.9 159.4C421.6 161.6 422.6 163.9 424.1 166.7C425 163.8 428.5 160.2 431.5 160C429.9 161.9 426.7 167.8 427 171.8C427.2 174.4 429.8 179 432.1 179.9C431.6 175.5 435.8 169.1 439.4 168.1C437.2 174.6 437.7 178.3 444.7 183.8C451.6 178.3 452.2 174.6 450 168.1C453.6 169.1 457.8 175.4 457.3 179.7C459.6 178.8 462.3 174.5 462.5 171.9C462.8 167.9 459.6 162.1 458 160.1C461.1 160.2 465.8 164.8 466.7 167.7C468.1 164.9 468.8 162.3 468.5 160.1C467.9 156.2 462.2 152.7 461.4 151.9C462.5 147.6 465.2 145.6 466.1 141.9C467.1 137.3 464.9 134.8 464.9 129.8C473 125.1 473.6 114 471 108.7C468.1 114.8 459.1 114.8 458.8 121.8C456.2 118.9 454.4 117.7 444.8 117.7C435.2 117.7 433.5 118.9 430.8 121.8C430.5 114.8 421.5 114.8 418.6 108.7C415.8 113.8 416.4 125 424.6 129.7ZM468.3 116.3C464.4 118.5 466.3 124.6 462.9 127.2C458.9 120.8 465.7 116.8 468.3 116.3ZM452.7 137.4C450.8 137.4 449.2 136 449.2 134.2C449.2 134.1 449.2 133.5 449.3 133.4C448.2 133.7 447.1 134.3 446.8 135.8C446.1 132.7 447.5 131.4 449.8 130.9C452.8 130.1 457.3 130.4 459.4 128.2C458.5 130.6 457.2 131.8 455.7 132.5C456.1 133 456.3 133.6 456.3 134.3C456.2 135.9 454.6 137.4 452.7 137.4ZM438.4 160.4C440.6 158.2 441.1 155.8 441.4 153.7C442.7 153.7 443.7 153.5 444.7 152.9C445.6 153.5 446.6 153.7 448 153.7C448.3 155.8 448.7 158.2 451 160.4C449 161.2 446.2 163.9 444.8 166.8C443.3 163.9 440.4 161.2 438.4 160.4ZM434.9 146.1C435.8 148.4 439.8 149.6 441.9 147C443.9 144.4 441.2 141.8 438.7 140.9C440.2 140 442.2 140 444.6 140C446.9 140 449 140 450.5 140.9C448 141.8 445.3 144.4 447.3 147C449.3 149.6 453.4 148.5 454.3 146.1C455 150.7 449.8 153.5 444.7 150.1C438.2 153.1 434.2 150.7 434.9 146.1ZM430 128.1C432.1 130.4 436.6 130.1 439.6 130.8C441.9 131.4 443.2 132.7 442.6 135.7C442.3 134.2 441.2 133.6 440.1 133.3C440.1 133.4 440.2 134 440.2 134.1C440.2 135.8 438.6 137.3 436.7 137.3C434.8 137.3 433.2 135.9 433.2 134.1C433.2 133.4 433.4 132.8 433.8 132.3C432.2 131.7 430.8 130.5 430 128.1ZM422.2 117.2C424.8 117.6 430.3 120.8 426.3 127.2C423.1 124.6 426.2 119.3 422.2 117.2Z" fill="#BBBBBB"/>
<path d="M451.2 132.8L453.8 132.5C454.4 133.4 454.2 134.7 452.7 134.9C451.4 135.1 450.9 133.7 451.2 132.8Z" fill="#BBBBBB"/>
<path d="M436.5 135C435 134.8 434.9 133.5 435.4 132.6L438 132.9C438.4 133.7 437.9 135.1 436.5 135Z" fill="#BBBBBB"/>
<path d="M374.2 259.8C376.5 260.5 378 264.6 379.2 268.6C380.4 272.6 380.9 278.9 381.8 280.7C383.6 284.4 383.6 284.1 387.8 284.7C393.7 285.5 408.1 278.3 431.4 289.9C427.1 284.2 427.8 267.2 428.2 260.6C428.6 254.9 439.7 262.7 448.3 264.8C447 254.6 453.6 242.8 460 244.1C449.5 253.6 453.8 272.2 457.5 279.2C462.7 289.2 489.2 293.9 490.4 302.3C491.4 309 491 324.4 487.3 324.4C479.1 324.2 479.2 321.8 473.4 321.7C469.4 321.7 467.6 325.1 467.5 328C463.6 330.5 462.4 335.3 465.1 338.2C466.8 333.4 471 332.7 474.7 333.1C471.6 334.8 470.9 338 472.2 341.7C475.4 337.4 486.6 338.2 494.2 337.8C503.3 337.3 510 335.2 505.4 327.9C497.1 314.7 506.8 301.8 509.6 299C488.4 287.3 490.5 270.6 484.6 258.7C502.3 273.6 515.6 264.7 519.8 258C505.6 263.7 490.1 251.9 482.6 240.7C475.3 229.9 469.4 216.3 467.3 204.4C473.8 213.3 478.9 216.9 485.3 212.4C482.4 210.2 480.9 207.5 482.2 205.3C493.3 213.5 498 209.3 500.9 205.7C494.7 203.7 493.6 201.3 493.6 199.7C505.4 202.4 510.7 200.8 514.3 194.4C505.6 194.6 500.1 193.5 498.9 190.6C501.3 190.8 512 189.9 512 189.9C520.5 188.8 524.2 186.6 526.6 177.7C524 179.3 518.9 180.1 514.6 180.6C504 181.8 500.6 180.3 500.4 178.7C510.4 176.3 518 175.1 525.8 172C534.9 168.4 538.3 164.9 538.6 154.1C536.1 156.6 532.4 158.2 527.8 160C522 162.2 516.5 164.2 511.1 165.3C507.1 166.4 505.1 165.5 504.6 163.7C514.5 159.5 521.8 156.4 529.8 151.1C538 145.7 540.5 141.9 538.7 129.8C536.4 133.4 530.7 136.8 526.5 139.3C520.3 142.9 510.9 147.6 508.6 148.6C506.3 149.6 503.7 150.1 502.5 148.6C511.6 141.5 520.1 136 526.4 129.5C533.8 121.9 536 116.4 531.2 105.1C529.9 108.7 525.7 113.4 521.9 117.1C515.7 123.2 507.1 129.1 503.1 132.1C499 135.2 497.6 135.5 496 133.9C503.9 125.5 507.9 122.3 513.6 115.3C520.3 107.1 521.5 101.1 516.3 90.6002C515.3 94.3002 511.5 99.3002 508.1 103.4C500.3 112.6 490.6 121.9 487.3 125.1C475.2 136.7 474.8 139.6 477.1 146.9C481.7 162.1 474 169.1 467.1 171.8C467.1 177.8 459.8 184.5 456 186.3C456 184.7 454.2 181.2 453.1 180.5C451.8 182.9 447.5 187.4 444.6 188.3C439.9 185.6 436.8 182.5 436.1 180.5C435.4 181.8 433.9 183.8 434.3 185.4C424.3 181.2 421.6 172.7 422.1 169.6C420.4 168.4 417.7 165.2 417 161.6C410.7 160.9 403.9 146.4 402.1 136.2C400.7 128.5 402.5 125.3 403.2 120.6C403.6 117.7 401.8 113.1 399.6 110.4C402.7 107.5 406.1 104.3 409.5 101C426.2 107.2 432.4 97.6002 427.4 84.1002C430.9 80.8002 434.3 77.6001 437.3 74.7001C438.1 76.0001 438.9 77.4002 439.7 79.0002C441.7 82.8002 443.9 86.0002 446.3 88.5002C450.5 92.8002 457.9 94.0001 465 93.2001C468.5 92.8001 471.3 91.2002 472.2 89.0002C477.4 90.6002 480 95.9002 486.2 92.6002C481.1 94.3002 477.7 89.4002 473.1 88.1002C478 88.6002 480.8 91.9002 485 88.4002C480 90.5002 477 86.7002 472.6 86.6002C472.6 86.4002 472.6 86.3002 472.5 86.1002C472.2 84.7002 470.5 84.1002 468.9 83.1002C467.7 82.4002 466 81.8001 464.1 81.7001C459.5 81.4001 458.1 82.9002 455.9 84.3002C453.5 85.8002 452.9 86.2002 451 84.9002C450.9 84.8002 450.7 84.7002 450.6 84.6002C450 84.1002 449.5 83.4002 449 82.8002C447.8 81.2002 446.7 78.9001 445.5 76.7001C444.4 74.6001 443.3 72.4002 442 70.4002C447.8 64.9002 451.6 61.3002 451.6 61.3002C452.5 60.3002 449.2 54.4002 446.6 56.6002C446.6 56.6002 443.1 59.9002 437.8 65.1002C435.1 62.6002 431.8 61.2002 427.5 61.8002C421.2 62.8002 419.4 66.8002 418.6 70.0002C417.8 73.1002 418.3 77.2002 420.3 82.0002C415.7 86.4002 411 91.0002 406.4 95.4002C390.5 91.1002 385.6 100.4 388 108.9C385.7 109.2 383.6 110 383.3 111.1C385 112 386 112.9 386.6 114.3C386.5 114.3 386.5 114.4 386.4 114.4C383.1 114.1 378.5 114.4 377.9 119C379 118.6 380.3 118.6 381.6 118.9C380.1 120.3 379 121.4 378.4 121.9C376 124 380 128.8 381.7 127.2C382.1 126.8 382.9 126.1 384 125.1C384.2 127.6 385.4 131.3 389.7 137.6C394.2 143.3 391.3 158 403 178.3C406.3 184 410.5 186 415.9 195.7C420.3 193.7 427.9 191.3 430.1 193.8C424.7 196.6 417.9 200.2 414.1 201.4C409.5 202.9 404.7 201.2 399.2 199.2C394.5 197.5 397.2 189.3 397 185.6C396.8 181.2 395.4 176.9 391.2 177.1C390.4 172.9 384.4 170.1 382.2 171.4C383.5 172.5 385.7 179.1 384.9 181.4C383.4 178.1 380.3 175.9 377.7 176.2C379.8 178.4 379.9 186.9 379.9 190C379.9 191 380.1 198.8 383.2 203.3C386.1 207.4 391.9 208.3 393.4 208.9C402.9 212.2 416.7 219.2 419.9 219.6C429.2 219.2 444.4 213.7 455.9 204.9C456.6 210.9 447.4 217.8 437.7 221.8C445.1 226.4 450.2 228 453.3 236.6C450 238 433.8 239.5 419 235.2C413.6 233.6 409.6 235.6 409 240.8C407.9 249.9 413.4 265.8 414.4 268.3C415.8 272.2 404.2 273.5 396.6 269.7C394.4 267.9 395.5 263.5 394.2 258.8C393.1 255 391.1 251.5 386.2 252.8C383.3 250.5 380.5 250.2 377.6 252.1C382.6 254.7 382.9 258.7 382.9 260.8C380.9 258.7 377 257.6 374.2 259.8ZM460.6 87.2001C461.9 84.3001 466.8 83.9002 467.1 87.0002C465.3 87.0002 462.4 86.8001 460.6 87.2001ZM428.4 68.7002C430.1 68.4002 431.6 68.9002 432.9 69.9002C430.3 72.4002 427.5 75.1002 424.6 77.9002C423.4 73.4002 424.5 69.4002 428.4 68.7002ZM413.8 97.2001C416.7 94.5001 419.6 91.7002 422.5 89.0002C423.5 94.5002 422 99.3001 413.8 97.2001ZM393.1 108.3C391.9 104 393.8 98.5002 401.8 100C398.7 102.9 395.8 105.7 393.1 108.3ZM465.8 195C476.8 194.3 477.1 188.3 477.5 183C483.8 182.7 483.8 177.7 482.8 173C487.5 172.7 491.6 167.2 490.8 161C493.8 166 493.1 171.7 486.5 174.7C488.5 178.4 486.5 185 480.5 185.7C481.2 190 476.9 198 465.8 195Z" fill="#BBBBBB"/>
<path d="M284.1 336.7L283.1 336.3C226.1 312.4 199.6 276.5 199.6 223.1V134L201.8 133.7C217.6 131.5 249.3 127.7 284.1 127.7C318.9 127.7 350.6 131.4 366.4 133.7L368.6 134V223.1C368.6 276.5 342.1 312.4 285.1 336.3L284.1 336.7ZM204.7 138.4V223.1C204.7 273.9 229.9 308.2 284.1 331.2C338.3 308.2 363.5 273.8 363.5 223.1V138.4C347.2 136.2 317 132.8 284.1 132.8C251.2 132.8 221 136.1 204.7 138.4Z" fill="white"/>
<path d="M284.1 342.1L283.1 341.7C252.9 329.4 231.2 313.8 216.5 294.2C201.8 274.5 194.6 251.2 194.6 223V129.6L196.8 129.3C210.1 127.3 245.3 122.7 284.1 122.7C322.9 122.7 358.1 127.3 371.4 129.3L373.6 129.6V223C373.6 251.2 366.4 274.5 351.7 294.2C337 313.8 315.3 329.3 285.1 341.7L284.1 342.1ZM199.7 134V223.1C199.7 250.2 206.5 272.4 220.6 291.2C234.5 309.8 255.3 324.7 284.1 336.6C312.9 324.7 333.7 309.8 347.6 291.2C361.6 272.4 368.5 250.1 368.5 223.1V134C353.9 131.9 320.6 127.7 284.1 127.7C247.6 127.8 214.3 131.9 199.7 134Z" fill="#1D1D1D"/>
<path d="M637.2 125.5H618L609 182.5H599.5L608.5 125.5H588.9L590.3 117.1H638.5L637.2 125.5Z" fill="#1D1D1D"/>
<path d="M684.9 154.9L680.6 182.4H671.9L676.2 155.5C677.5 147.2 674.5 143 667.5 143C662.1 143 656.5 146.3 652.8 150.2L647.6 182.4H638.9L649.9 113.2H658.6L654.1 141.7C658.6 137.7 664 135.1 670.5 135.1C681.4 135.1 686.9 142.6 684.9 154.9Z" fill="#1D1D1D"/>
<path d="M740 160.6L739.8 161.7H704.9C704.5 170.5 709.8 175.7 719.2 175.7C724.8 175.7 730 174.2 733.2 172.7L735.3 179.8C730.7 181.8 725.2 183.3 718.4 183.3C702.2 183.3 694 172.6 696.6 157.1C698.5 145 708.7 135.2 721.9 135.2C735.6 135.1 743.2 145.5 740 160.6ZM721.5 142.3C714.4 142.3 707.8 147.2 705.8 155.2H732.2C733.3 146.8 728.4 142.3 721.5 142.3Z" fill="#1D1D1D"/>
<path d="M831.7 169.3L829.9 182.5H829.2C818.7 182.5 812.9 179.1 806.8 169.3L799.7 158H794V182.5H778.5V117.1H803.6C818.2 117.1 826 125.8 826 136.5C826 144.2 822 151.2 814.3 155L820.2 163C823.2 167.1 827 169.3 831.1 169.3H831.7ZM793.9 145.9H801C806.1 145.9 809.7 143.1 809.7 137.7C809.7 132.3 806.2 129.6 801.1 129.6H793.9V145.9Z" fill="#1D1D1D"/>
<path d="M838.6 149.8C838.6 129.4 853.3 116.2 873 116.2C892.8 116.2 907.4 129.5 907.4 149.5C907.4 169.7 892.8 183.4 872.9 183.4C853.4 183.4 838.6 170.2 838.6 149.8ZM891.2 149.8C891.2 138.6 883.7 130.8 873 130.8C862.2 130.8 854.8 138.5 854.8 149.8C854.8 160.9 862.3 168.8 873 168.8C883.8 168.7 891.2 160.9 891.2 149.8Z" fill="#1D1D1D"/>
<path d="M946.4 157.5V182.4H931.3V157.5L909.7 117.1H926.3L939.6 143.4L952.9 117.1H968L946.4 157.5Z" fill="#1D1D1D"/>
<path d="M1009.1 169.1H985.5L981 182.4H965.4L989.2 117H1006.1L1029.9 182.4H1013.5L1009.1 169.1ZM1005.1 157L997.4 133.9L989.7 157H1005.1Z" fill="#1D1D1D"/>
<path d="M1080.7 168.6V182.4H1040.4V117H1055.9V168.6H1080.7Z" fill="#1D1D1D"/>
<path d="M1113.7 148.9C1113.7 128 1128.2 116.1 1146.3 116.1C1159.6 116.1 1167.3 121.8 1171.8 128.5L1160.3 137.5C1157.4 133.4 1153.3 130.5 1146.3 130.5C1136.3 130.5 1129.9 138.4 1129.9 148.8C1129.9 160.4 1137.5 168.8 1150.5 168.8C1157.4 168.8 1162.7 166.4 1166.3 164.4L1172.1 177.1C1166.3 180.8 1158.8 183.3 1149.3 183.3C1128.2 183.4 1113.7 170.7 1113.7 148.9Z" fill="#1D1D1D"/>
<path d="M1179.5 149.8C1179.5 129.4 1194.2 116.2 1213.9 116.2C1233.7 116.2 1248.3 129.5 1248.3 149.5C1248.3 169.7 1233.7 183.4 1213.8 183.4C1194.3 183.4 1179.5 170.2 1179.5 149.8ZM1232.1 149.8C1232.1 138.6 1224.6 130.8 1213.9 130.8C1203.1 130.8 1195.7 138.5 1195.7 149.8C1195.7 160.9 1203.2 168.8 1213.9 168.8C1224.7 168.7 1232.1 160.9 1232.1 149.8Z" fill="#1D1D1D"/>
<path d="M1302.7 168.6V182.4H1262.4V117H1277.9V168.6H1302.7Z" fill="#1D1D1D"/>
<path d="M1354.2 168.6V182.4H1313.9V117H1329.4V168.6H1354.2Z" fill="#1D1D1D"/>
<path d="M1365.3 117.1H1408.3V130.6H1380.8V143.2H1406.6V156.3H1380.8V168.9H1408.8V182.4H1365.3V117.1Z" fill="#1D1D1D"/>
<path d="M1420.4 150.1C1420.4 128.1 1435.5 116.1 1453.5 116.1C1464.4 116.1 1474.2 120.7 1480.5 129L1468.6 138.1C1465 133.8 1460 130.6 1453.5 130.6C1445.1 130.6 1436.7 136.9 1436.7 150C1436.7 162.5 1444.7 168.8 1455.7 168.8C1460.5 168.8 1463.3 168.1 1465.7 167V160.2H1455V147.2H1481V177.3C1474.6 180.7 1467.3 183.5 1455.9 183.5C1434.2 183.5 1420.4 170.5 1420.4 150.1Z" fill="#1D1D1D"/>
<path d="M1497.9 117.1H1540.9V130.6H1513.4V143.2H1539.2V156.3H1513.4V168.9H1541.4V182.4H1497.9V117.1Z" fill="#1D1D1D"/>
<path d="M1579 161C1579 148.9 1587.3 135.1 1605.8 135.1C1619.3 135.1 1628.4 144 1628.4 156.9C1628.4 169.4 1620.3 183.3 1601.8 183.3C1588.5 183.4 1579 174.6 1579 161ZM1619.4 157.6C1619.4 148.9 1613.6 143.3 1604.9 143.3C1593.8 143.3 1588.1 152.1 1588.1 160.4C1588.1 169.4 1593.7 175.2 1602.5 175.2C1613 175.3 1619.4 167.1 1619.4 157.6Z" fill="#1D1D1D"/>
<path d="M1627.3 194.1C1634.7 194.1 1638.5 190.4 1640 180.9L1645.8 143.9H1637.6L1638.9 136.1H1647.1L1647.6 133.3C1649.8 119.8 1658 112.9 1671.3 112.9H1672.1V120.8H1670.8C1663.3 120.8 1657.6 124.8 1656.2 134.1L1655.9 136.1H1667.8L1666.5 143.9H1654.6L1648.5 182.5C1646.4 196 1639.8 202.1 1628 202.1L1627.3 194.1Z" fill="#1D1D1D"/>
<path d="M586.3 244.7C586.3 224.3 601 211.1 620.7 211.1C640.5 211.1 655.1 224.4 655.1 244.4C655.1 264.6 640.5 278.3 620.6 278.3C601.1 278.3 586.3 265.1 586.3 244.7ZM638.9 244.7C638.9 233.5 631.4 225.7 620.7 225.7C609.9 225.7 602.5 233.4 602.5 244.7C602.5 255.8 610 263.7 620.7 263.7C631.5 263.6 638.9 255.8 638.9 244.7Z" fill="#1D1D1D"/>
<path d="M716.5 234.7C716.5 246.4 709 258.3 690 258.3H684.7V277.4H669.2V212H690C709 212 716.5 222.8 716.5 234.7ZM700.2 234.7C700.2 227.6 695.6 224.5 688.7 224.5H684.6V245.7H688.7C695.6 245.7 700.2 241.9 700.2 234.7Z" fill="#1D1D1D"/>
<path d="M788.4 212V277.4H772.9V251.4H744.3V277.4H728.8V212H744.3V238H772.9V212H788.4Z" fill="#1D1D1D"/>
<path d="M849.8 225.4H832.2V277.3H816.7V225.4H799V212H849.7V225.4H849.8Z" fill="#1D1D1D"/>
<path d="M920.1 212V277.4H904.6V251.4H876V277.4H860.5V212H876V238H904.6V212H920.1Z" fill="#1D1D1D"/>
<path d="M974.1 264H950.5L946 277.4H930.4L954.2 212H971.1L994.9 277.4H978.5L974.1 264ZM970.1 251.9L962.4 228.8L954.7 251.9H970.1Z" fill="#1D1D1D"/>
<path d="M1045.7 263.5V277.3H1005.4V212H1020.9V263.6H1045.7V263.5Z" fill="#1D1D1D"/>
<path d="M1059.5 212H1080.8L1094.4 243.9L1108.8 212H1129.5L1132.7 277.4H1117.6L1115.1 228.9L1101 262.7H1086.8L1073.1 228.9L1070.6 277.4H1056.1L1059.5 212Z" fill="#1D1D1D"/>
<path d="M1145 244.7C1145 224.3 1159.7 211.1 1179.4 211.1C1199.2 211.1 1213.8 224.4 1213.8 244.4C1213.8 264.6 1199.2 278.3 1179.3 278.3C1159.8 278.3 1145 265.1 1145 244.7ZM1197.6 244.7C1197.6 233.5 1190.1 225.7 1179.4 225.7C1168.6 225.7 1161.2 233.4 1161.2 244.7C1161.2 255.8 1168.7 263.7 1179.4 263.7C1190.2 263.6 1197.6 255.8 1197.6 244.7Z" fill="#1D1D1D"/>
<path d="M1268.2 263.5V277.3H1227.9V212H1243.4V263.6H1268.2V263.5Z" fill="#1D1D1D"/>
<path d="M1275.3 244.7C1275.3 224.3 1290 211.1 1309.7 211.1C1329.5 211.1 1344.1 224.4 1344.1 244.4C1344.1 264.6 1329.5 278.3 1309.6 278.3C1290.2 278.3 1275.3 265.1 1275.3 244.7ZM1328 244.7C1328 233.5 1320.5 225.7 1309.8 225.7C1299 225.7 1291.6 233.4 1291.6 244.7C1291.6 255.8 1299.1 263.7 1309.8 263.7C1320.5 263.6 1328 255.8 1328 244.7Z" fill="#1D1D1D"/>
<path d="M1354.6 245C1354.6 223 1369.7 211 1387.7 211C1398.6 211 1408.4 215.6 1414.7 223.9L1402.8 233C1399.2 228.7 1394.2 225.5 1387.7 225.5C1379.3 225.5 1370.9 231.8 1370.9 244.9C1370.9 257.4 1378.9 263.7 1389.9 263.7C1394.7 263.7 1397.5 263 1399.9 261.9V255.1H1389.2V242.1H1415.2V272.2C1408.8 275.6 1401.5 278.4 1390.1 278.4C1368.3 278.4 1354.6 265.4 1354.6 245Z" fill="#1D1D1D"/>
<path d="M1432.1 212H1447.6V277.4H1432.1V212Z" fill="#1D1D1D"/>
<path d="M1506.8 222.3L1494.6 229.7C1492.9 226.9 1489.9 224.5 1485.2 224.5C1481.4 224.5 1478.4 226.3 1478.4 229.5C1478.4 233.4 1483 235.1 1490.6 237.8C1501.3 241.7 1508 246.5 1508 257.6C1508 270.5 1498.6 278.3 1483.6 278.3C1474.7 278.3 1466.7 275.6 1460.7 271.7L1467.2 259C1472.4 262.8 1478.6 264.8 1484.2 264.8C1489.6 264.8 1492.2 262.8 1492.2 259.1C1492.2 255.2 1489.1 253.9 1480.5 250.6C1469.7 246.5 1462.7 241.8 1462.7 231C1462.7 218.6 1472.1 211.1 1485.1 211.1C1496.5 211.1 1504 216.3 1506.8 222.3Z" fill="#1D1D1D"/>
<path d="M1567.3 225.4H1549.7V277.3H1534.2V225.4H1516.5V212H1567.2V225.4H1567.3Z" fill="#1D1D1D"/>
<path d="M1620.7 222.3L1608.5 229.7C1606.8 226.9 1603.8 224.5 1599.1 224.5C1595.3 224.5 1592.3 226.3 1592.3 229.5C1592.3 233.4 1596.9 235.1 1604.5 237.8C1615.2 241.7 1621.9 246.5 1621.9 257.6C1621.9 270.5 1612.5 278.3 1597.5 278.3C1588.6 278.3 1580.6 275.6 1574.6 271.7L1581.1 259C1586.3 262.8 1592.5 264.8 1598.1 264.8C1603.5 264.8 1606.1 262.8 1606.1 259.1C1606.1 255.2 1603 253.9 1594.4 250.6C1583.6 246.5 1576.6 241.8 1576.6 231C1576.6 218.6 1586 211.1 1599 211.1C1610.4 211.1 1618 216.3 1620.7 222.3Z" fill="#1D1D1D"/>
</svg>
