<svg width="1423" height="1204" viewBox="0 0 1423 1204" fill="none" xmlns="http://www.w3.org/2000/svg">
<g filter="url(#filter0_f_802_862)">
<mask id="mask0_802_862" style="mask-type:alpha" maskUnits="userSpaceOnUse" x="-1" y="2" width="1314" height="1202">
<rect x="1312.61" y="540.922" width="765.903" height="1073.16" transform="rotate(120.128 1312.61 540.922)" fill="url(#paint0_linear_802_862)"/>
</mask>
<g mask="url(#mask0_802_862)">
<path d="M528.526 828.473C329.872 716.95 253.472 485.398 357.893 311.331C368.845 293.075 381.39 276.112 395.239 260.578C335.189 425.388 415.039 621.324 592.896 721.172C770.752 821.02 986.149 790.834 1104.35 658.672C1097.28 678.011 1088.28 696.964 1077.33 715.22C972.908 889.287 727.18 939.997 528.526 828.473Z" fill="#EAEDF0"/>
<g filter="url(#filter1_f_802_862)">
<path d="M535.678 816.551C337.024 705.027 253.472 485.398 357.893 311.331C368.845 293.075 381.39 276.112 395.239 260.578C335.189 425.388 407.887 633.246 585.744 733.094C763.6 832.942 986.149 790.834 1104.35 658.672C1097.28 678.011 1088.28 696.964 1077.33 715.22C972.908 889.287 734.332 928.074 535.678 816.551Z" fill="#EAEDF0"/>
</g>
<g filter="url(#filter2_f_802_862)">
<path d="M539.255 810.59C340.601 699.066 254.462 470.016 358.883 295.949C369.835 277.693 382.38 260.73 396.229 245.196C336.179 410.007 404.311 639.207 582.168 739.055C760.024 838.903 994.766 774.754 1112.97 642.591C1105.9 661.931 1096.9 680.883 1085.95 699.139C981.525 873.206 737.908 922.113 539.255 810.59Z" fill="#EAEDF0"/>
</g>
<g filter="url(#filter3_f_802_862)">
<path d="M539.255 810.59C340.601 699.066 254.462 470.016 358.883 295.949C369.835 277.693 382.38 260.73 396.229 245.196C336.179 410.007 404.311 639.207 582.168 739.055C760.024 838.903 994.766 774.754 1112.97 642.591C1105.9 661.931 1096.9 680.883 1085.95 699.139C981.525 873.206 737.908 922.113 539.255 810.59Z" fill="#EAEDF0"/>
</g>
<g filter="url(#filter4_f_802_862)">
<path d="M539.255 810.59C340.601 699.066 254.462 470.016 358.883 295.949C369.835 277.693 382.38 260.73 396.229 245.196C336.179 410.007 404.311 639.207 582.168 739.055C760.024 838.903 994.766 774.754 1112.97 642.591C1105.9 661.931 1096.9 680.883 1085.95 699.139C981.525 873.206 737.908 922.113 539.255 810.59Z" fill="#EAEDF0"/>
</g>
<g filter="url(#filter5_f_802_862)">
<path d="M546.213 770.668C347.56 659.145 254.462 470.016 358.883 295.949C369.835 277.693 382.38 260.73 396.229 245.196C336.179 410.007 387.666 655.762 570.545 758.429C799.686 887.068 994.766 774.754 1112.97 642.591C1105.9 661.931 1096.9 680.883 1085.95 699.139C981.525 873.206 744.867 882.191 546.213 770.668Z" fill="#EAEDF0"/>
</g>
<g filter="url(#filter6_f_802_862)">
<path d="M546.214 770.668C347.56 659.144 213.607 475.469 318.029 301.402C328.981 283.146 409.216 247.406 423.065 231.873C363.015 396.683 387.666 655.761 570.545 758.429C799.686 887.068 985.397 746.086 1103.6 613.924C1085.66 603.848 1140.64 674.06 1129.68 692.316C1025.26 866.382 744.867 882.191 546.214 770.668Z" fill="#EAEDF0"/>
</g>
<g filter="url(#filter7_f_802_862)">
<path d="M546.214 770.668C347.56 659.144 213.607 475.469 318.029 301.402C328.981 283.146 409.216 247.406 423.065 231.873C363.015 396.683 387.666 655.761 570.545 758.429C799.686 887.068 985.397 746.086 1103.6 613.924C1085.66 603.848 1140.64 674.06 1129.68 692.316C1025.26 866.382 744.867 882.191 546.214 770.668Z" fill="#EAEDF0"/>
</g>
<g filter="url(#filter8_f_802_862)">
<path d="M546.214 770.668C347.56 659.145 213.607 475.469 318.029 301.403C328.981 283.147 409.216 247.407 423.065 231.873C363.015 396.684 387.666 655.762 570.545 758.43C799.686 887.068 985.397 746.086 1103.6 613.924C1085.66 603.849 1140.64 674.06 1129.68 692.316C1025.26 866.383 744.867 882.192 546.214 770.668Z" fill="#EAEDF0"/>
</g>
</g>
</g>
<g filter="url(#filter9_f_802_862)">
<path d="M997.249 295.025C1168.04 422.386 1209.83 646.983 1090.57 796.635C1078.07 812.331 1064.24 826.634 1049.38 839.452C1126.16 693.156 1076.65 501.303 923.738 387.276C770.828 273.248 566.502 275.813 439.728 384.824C448.76 367.66 459.54 351.085 472.047 335.389C591.298 185.737 826.459 167.663 997.249 295.025Z" fill="#EAEDF0"/>
<g filter="url(#filter10_f_802_862)">
<path d="M989.081 305.275C1159.87 432.636 1209.83 646.983 1090.57 796.635C1078.07 812.331 1064.24 826.634 1049.38 839.452C1126.16 693.156 1084.82 491.053 931.906 377.026C778.996 262.998 566.502 275.813 439.728 384.824C448.76 367.66 459.54 351.085 472.047 335.389C591.298 185.737 818.291 177.914 989.081 305.275Z" fill="#EAEDF0"/>
</g>
<g filter="url(#filter11_f_802_862)">
<path d="M984.998 310.4C1155.79 437.761 1206.96 661.184 1087.71 810.836C1075.2 826.532 1061.37 840.835 1046.51 853.653C1123.29 707.357 1088.9 485.928 935.99 371.9C783.08 257.873 556.444 289.76 429.671 398.771C438.702 381.607 449.482 365.032 461.989 349.336C581.24 199.684 814.207 183.038 984.998 310.4Z" fill="#EAEDF0"/>
</g>
<g filter="url(#filter12_f_802_862)">
<path d="M984.998 310.4C1155.79 437.761 1206.96 661.184 1087.71 810.836C1075.2 826.532 1061.37 840.835 1046.51 853.653C1123.29 707.357 1088.9 485.928 935.99 371.9C783.08 257.873 556.444 289.76 429.671 398.771C438.702 381.607 449.482 365.032 461.989 349.336C581.24 199.684 814.207 183.038 984.998 310.4Z" fill="#EAEDF0"/>
</g>
<g filter="url(#filter13_f_802_862)">
<path d="M984.998 310.4C1155.79 437.761 1206.96 661.184 1087.71 810.836C1075.2 826.532 1061.37 840.835 1046.51 853.653C1123.29 707.357 1088.9 485.928 935.99 371.9C783.08 257.873 556.444 289.76 429.671 398.771C438.702 381.607 449.482 365.032 461.989 349.336C581.24 199.684 814.207 183.038 984.998 310.4Z" fill="#EAEDF0"/>
</g>
<g filter="url(#filter14_f_802_862)">
<path d="M973.463 346.736C1144.25 474.097 1206.96 661.184 1087.71 810.836C1075.2 826.532 1061.37 840.835 1046.51 853.653C1123.29 707.357 1106.49 472.492 949.263 355.244C752.262 208.337 556.444 289.76 429.671 398.771C438.702 381.607 449.482 365.032 461.989 349.336C581.24 199.684 802.672 219.375 973.463 346.736Z" fill="#EAEDF0"/>
</g>
<g filter="url(#filter15_f_802_862)">
<path d="M973.463 346.736C1144.25 474.097 1245.68 660.951 1126.43 810.603C1113.92 826.299 1034.7 850.056 1019.84 862.874C1096.62 716.578 1106.49 472.492 949.263 355.244C752.262 208.337 561.533 317.555 434.76 426.566C450.19 438.073 407.905 366.199 420.412 350.503C539.663 200.852 802.672 219.375 973.463 346.736Z" fill="#EAEDF0"/>
</g>
<g filter="url(#filter16_f_802_862)">
<path d="M973.463 346.736C1144.25 474.097 1245.68 660.951 1126.43 810.603C1113.92 826.299 1034.7 850.056 1019.84 862.874C1096.62 716.578 1106.49 472.492 949.263 355.244C752.262 208.337 561.533 317.555 434.76 426.566C450.19 438.073 407.905 366.199 420.412 350.503C539.663 200.852 802.672 219.375 973.463 346.736Z" fill="#EAEDF0"/>
</g>
<g filter="url(#filter17_f_802_862)">
<path d="M973.463 346.736C1144.25 474.097 1245.68 660.951 1126.43 810.603C1113.92 826.299 1034.7 850.056 1019.84 862.874C1096.62 716.578 1106.49 472.492 949.263 355.244C752.262 208.337 561.533 317.555 434.76 426.566C450.19 438.073 407.905 366.199 420.412 350.503C539.663 200.852 802.672 219.375 973.463 346.736Z" fill="#EAEDF0"/>
</g>
</g>
<defs>
<filter id="filter0_f_802_862" x="277.635" y="227.873" width="857.505" height="663.783" filterUnits="userSpaceOnUse" color-interpolation-filters="sRGB">
<feFlood flood-opacity="0" result="BackgroundImageFix"/>
<feBlend mode="normal" in="SourceGraphic" in2="BackgroundImageFix" result="shape"/>
<feGaussianBlur stdDeviation="2" result="effect1_foregroundBlur_802_862"/>
</filter>
<filter id="filter1_f_802_862" x="300.685" y="248.578" width="815.669" height="642.821" filterUnits="userSpaceOnUse" color-interpolation-filters="sRGB">
<feFlood flood-opacity="0" result="BackgroundImageFix"/>
<feBlend mode="normal" in="SourceGraphic" in2="BackgroundImageFix" result="shape"/>
<feGaussianBlur stdDeviation="6" result="effect1_foregroundBlur_802_862"/>
</filter>
<filter id="filter2_f_802_862" x="278.211" y="209.196" width="870.761" height="697.111" filterUnits="userSpaceOnUse" color-interpolation-filters="sRGB">
<feFlood flood-opacity="0" result="BackgroundImageFix"/>
<feBlend mode="normal" in="SourceGraphic" in2="BackgroundImageFix" result="shape"/>
<feGaussianBlur stdDeviation="18" result="effect1_foregroundBlur_802_862"/>
</filter>
<filter id="filter3_f_802_862" x="262.211" y="193.196" width="902.761" height="729.111" filterUnits="userSpaceOnUse" color-interpolation-filters="sRGB">
<feFlood flood-opacity="0" result="BackgroundImageFix"/>
<feBlend mode="normal" in="SourceGraphic" in2="BackgroundImageFix" result="shape"/>
<feGaussianBlur stdDeviation="26" result="effect1_foregroundBlur_802_862"/>
</filter>
<filter id="filter4_f_802_862" x="262.211" y="193.196" width="902.761" height="729.111" filterUnits="userSpaceOnUse" color-interpolation-filters="sRGB">
<feFlood flood-opacity="0" result="BackgroundImageFix"/>
<feBlend mode="normal" in="SourceGraphic" in2="BackgroundImageFix" result="shape"/>
<feGaussianBlur stdDeviation="26" result="effect1_foregroundBlur_802_862"/>
</filter>
<filter id="filter5_f_802_862" x="191.602" y="121.196" width="1045.37" height="846.948" filterUnits="userSpaceOnUse" color-interpolation-filters="sRGB">
<feFlood flood-opacity="0" result="BackgroundImageFix"/>
<feBlend mode="normal" in="SourceGraphic" in2="BackgroundImageFix" result="shape"/>
<feGaussianBlur stdDeviation="62" result="effect1_foregroundBlur_802_862"/>
</filter>
<filter id="filter6_f_802_862" x="205.635" y="155.873" width="1001.51" height="761.643" filterUnits="userSpaceOnUse" color-interpolation-filters="sRGB">
<feFlood flood-opacity="0" result="BackgroundImageFix"/>
<feBlend mode="normal" in="SourceGraphic" in2="BackgroundImageFix" result="shape"/>
<feGaussianBlur stdDeviation="38" result="effect1_foregroundBlur_802_862"/>
</filter>
<filter id="filter7_f_802_862" x="117.635" y="67.8728" width="1177.51" height="937.643" filterUnits="userSpaceOnUse" color-interpolation-filters="sRGB">
<feFlood flood-opacity="0" result="BackgroundImageFix"/>
<feBlend mode="normal" in="SourceGraphic" in2="BackgroundImageFix" result="shape"/>
<feGaussianBlur stdDeviation="82" result="effect1_foregroundBlur_802_862"/>
</filter>
<filter id="filter8_f_802_862" x="37.6354" y="-12.1267" width="1337.51" height="1097.64" filterUnits="userSpaceOnUse" color-interpolation-filters="sRGB">
<feFlood flood-opacity="0" result="BackgroundImageFix"/>
<feBlend mode="normal" in="SourceGraphic" in2="BackgroundImageFix" result="shape"/>
<feGaussianBlur stdDeviation="122" result="effect1_foregroundBlur_802_862"/>
</filter>
<filter id="filter9_f_802_862" x="414.065" y="206.173" width="768.191" height="660.7" filterUnits="userSpaceOnUse" color-interpolation-filters="sRGB">
<feFlood flood-opacity="0" result="BackgroundImageFix"/>
<feBlend mode="normal" in="SourceGraphic" in2="BackgroundImageFix" result="shape"/>
<feGaussianBlur stdDeviation="2" result="effect1_foregroundBlur_802_862"/>
</filter>
<filter id="filter10_f_802_862" x="427.729" y="203.965" width="740.175" height="647.487" filterUnits="userSpaceOnUse" color-interpolation-filters="sRGB">
<feFlood flood-opacity="0" result="BackgroundImageFix"/>
<feBlend mode="normal" in="SourceGraphic" in2="BackgroundImageFix" result="shape"/>
<feGaussianBlur stdDeviation="6" result="effect1_foregroundBlur_802_862"/>
</filter>
<filter id="filter11_f_802_862" x="393.671" y="188.944" width="794.985" height="700.709" filterUnits="userSpaceOnUse" color-interpolation-filters="sRGB">
<feFlood flood-opacity="0" result="BackgroundImageFix"/>
<feBlend mode="normal" in="SourceGraphic" in2="BackgroundImageFix" result="shape"/>
<feGaussianBlur stdDeviation="18" result="effect1_foregroundBlur_802_862"/>
</filter>
<filter id="filter12_f_802_862" x="377.671" y="172.944" width="826.985" height="732.709" filterUnits="userSpaceOnUse" color-interpolation-filters="sRGB">
<feFlood flood-opacity="0" result="BackgroundImageFix"/>
<feBlend mode="normal" in="SourceGraphic" in2="BackgroundImageFix" result="shape"/>
<feGaussianBlur stdDeviation="26" result="effect1_foregroundBlur_802_862"/>
</filter>
<filter id="filter13_f_802_862" x="377.671" y="172.944" width="826.985" height="732.709" filterUnits="userSpaceOnUse" color-interpolation-filters="sRGB">
<feFlood flood-opacity="0" result="BackgroundImageFix"/>
<feBlend mode="normal" in="SourceGraphic" in2="BackgroundImageFix" result="shape"/>
<feGaussianBlur stdDeviation="26" result="effect1_foregroundBlur_802_862"/>
</filter>
<filter id="filter14_f_802_862" x="305.671" y="120.058" width="967.551" height="857.595" filterUnits="userSpaceOnUse" color-interpolation-filters="sRGB">
<feFlood flood-opacity="0" result="BackgroundImageFix"/>
<feBlend mode="normal" in="SourceGraphic" in2="BackgroundImageFix" result="shape"/>
<feGaussianBlur stdDeviation="62" result="effect1_foregroundBlur_802_862"/>
</filter>
<filter id="filter15_f_802_862" x="342.065" y="168.666" width="912.191" height="770.207" filterUnits="userSpaceOnUse" color-interpolation-filters="sRGB">
<feFlood flood-opacity="0" result="BackgroundImageFix"/>
<feBlend mode="normal" in="SourceGraphic" in2="BackgroundImageFix" result="shape"/>
<feGaussianBlur stdDeviation="38" result="effect1_foregroundBlur_802_862"/>
</filter>
<filter id="filter16_f_802_862" x="254.065" y="80.6663" width="1088.19" height="946.207" filterUnits="userSpaceOnUse" color-interpolation-filters="sRGB">
<feFlood flood-opacity="0" result="BackgroundImageFix"/>
<feBlend mode="normal" in="SourceGraphic" in2="BackgroundImageFix" result="shape"/>
<feGaussianBlur stdDeviation="82" result="effect1_foregroundBlur_802_862"/>
</filter>
<filter id="filter17_f_802_862" x="174.065" y="0.66626" width="1248.19" height="1106.21" filterUnits="userSpaceOnUse" color-interpolation-filters="sRGB">
<feFlood flood-opacity="0" result="BackgroundImageFix"/>
<feBlend mode="normal" in="SourceGraphic" in2="BackgroundImageFix" result="shape"/>
<feGaussianBlur stdDeviation="122" result="effect1_foregroundBlur_802_862"/>
</filter>
<linearGradient id="paint0_linear_802_862" x1="1695.56" y1="540.922" x2="1695.56" y2="1614.08" gradientUnits="userSpaceOnUse">
<stop stop-color="#C4C4C4" stop-opacity="0"/>
<stop offset="0.380208" stop-color="#C4C4C4"/>
<stop offset="0.578125" stop-color="#C4C4C4"/>
<stop offset="1" stop-color="#C4C4C4" stop-opacity="0"/>
</linearGradient>
</defs>
</svg>
