<svg width="2094" height="2005" viewBox="0 0 2094 2005" fill="none" xmlns="http://www.w3.org/2000/svg">
<g filter="url(#filter0_f_802_862)">
<mask id="mask0_802_862" style="mask-type:alpha" maskUnits="userSpaceOnUse" x="0" y="591" width="1544" height="1414">
<rect x="1543.96" y="1225.02" width="900.703" height="1262.03" transform="rotate(120.128 1543.96 1225.02)" fill="url(#paint0_linear_802_862)"/>
</mask>
<g mask="url(#mask0_802_862)">
<path d="M621.878 1563.18C388.261 1432.03 298.414 1159.72 421.214 955.018C434.093 933.549 448.845 913.6 465.132 895.332C394.513 1089.15 488.417 1319.57 697.576 1436.99C906.736 1554.41 1160.04 1518.91 1299.05 1363.49C1290.74 1386.23 1280.15 1408.52 1267.27 1429.99C1144.47 1634.69 855.495 1694.33 621.878 1563.18Z" fill="#EAEDF0"/>
<g filter="url(#filter1_f_802_862)">
<path d="M630.289 1549.16C396.672 1418 298.414 1159.72 421.214 955.018C434.093 933.549 448.845 913.6 465.132 895.332C394.513 1089.15 480.006 1333.59 689.165 1451.01C898.325 1568.43 1160.04 1518.91 1299.05 1363.49C1290.74 1386.23 1280.15 1408.52 1267.27 1429.99C1144.47 1634.69 863.906 1680.31 630.289 1549.16Z" fill="#EAEDF0"/>
</g>
<g filter="url(#filter2_f_802_862)">
<path d="M634.494 1542.15C400.877 1410.99 299.578 1141.63 422.378 936.929C435.257 915.46 450.01 895.511 466.296 877.243C395.678 1071.06 475.801 1340.6 684.96 1458.02C894.119 1575.44 1170.18 1500 1309.19 1344.58C1300.87 1367.32 1290.28 1389.61 1277.4 1411.08C1154.6 1615.78 868.111 1673.3 634.494 1542.15Z" fill="#EAEDF0"/>
</g>
<g filter="url(#filter3_f_802_862)">
<path d="M634.494 1542.15C400.877 1410.99 299.578 1141.63 422.378 936.929C435.257 915.46 450.01 895.511 466.296 877.243C395.678 1071.06 475.801 1340.6 684.96 1458.02C894.119 1575.44 1170.18 1500 1309.19 1344.58C1300.87 1367.32 1290.28 1389.61 1277.4 1411.08C1154.6 1615.78 868.111 1673.3 634.494 1542.15Z" fill="#EAEDF0"/>
</g>
<g filter="url(#filter4_f_802_862)">
<path d="M634.494 1542.15C400.877 1410.99 299.578 1141.63 422.378 936.929C435.257 915.46 450.01 895.511 466.296 877.243C395.678 1071.06 475.801 1340.6 684.96 1458.02C894.119 1575.44 1170.18 1500 1309.19 1344.58C1300.87 1367.32 1290.28 1389.61 1277.4 1411.08C1154.6 1615.78 868.111 1673.3 634.494 1542.15Z" fill="#EAEDF0"/>
</g>
<g filter="url(#filter5_f_802_862)">
<path d="M642.678 1495.2C409.061 1364.05 299.578 1141.63 422.378 936.929C435.257 915.46 450.01 895.511 466.296 877.243C395.678 1071.06 456.226 1360.07 671.292 1480.81C940.761 1632.08 1170.18 1500 1309.19 1344.58C1300.87 1367.32 1290.28 1389.61 1277.4 1411.08C1154.6 1615.78 876.295 1626.35 642.678 1495.2Z" fill="#EAEDF0"/>
</g>
<g filter="url(#filter6_f_802_862)">
<path d="M642.678 1495.2C409.061 1364.05 251.533 1148.04 374.333 943.341C387.212 921.872 481.569 879.842 497.855 861.574C427.237 1055.39 456.226 1360.07 671.292 1480.8C940.762 1632.08 1159.16 1466.29 1298.17 1310.87C1277.06 1299.02 1341.72 1381.59 1328.84 1403.06C1206.04 1607.76 876.295 1626.35 642.678 1495.2Z" fill="#EAEDF0"/>
</g>
<g filter="url(#filter7_f_802_862)">
<path d="M642.678 1495.2C409.061 1364.05 251.533 1148.04 374.333 943.341C387.212 921.872 481.569 879.842 497.855 861.574C427.237 1055.39 456.226 1360.07 671.292 1480.8C940.762 1632.08 1159.16 1466.29 1298.17 1310.87C1277.06 1299.02 1341.72 1381.59 1328.84 1403.06C1206.04 1607.76 876.295 1626.35 642.678 1495.2Z" fill="#EAEDF0"/>
</g>
<g filter="url(#filter8_f_802_862)">
<path d="M642.678 1495.2C409.061 1364.05 251.533 1148.04 374.333 943.342C387.212 921.872 481.569 879.842 497.855 861.575C427.237 1055.39 456.226 1360.07 671.292 1480.81C940.762 1632.08 1159.16 1466.29 1298.17 1310.87C1277.06 1299.02 1341.72 1381.59 1328.84 1403.06C1206.04 1607.76 876.295 1626.35 642.678 1495.2Z" fill="#EAEDF0"/>
</g>
</g>
</g>
<g filter="url(#filter9_f_802_862)">
<mask id="mask1_802_862" style="mask-type:alpha" maskUnits="userSpaceOnUse" x="481" y="142" width="1512" height="1316">
<rect x="1992.19" y="625.691" width="900.703" height="1262.03" transform="rotate(112.5 1992.19 625.691)" fill="url(#paint1_linear_802_862)"/>
</mask>
<g mask="url(#mask1_802_862)">
<path d="M1367.95 575.828C1586.9 697.622 1670.67 952.889 1555.03 1145.94C1542.9 1166.18 1529.02 1185.01 1513.7 1202.27C1580.35 1019.77 1492.7 803.873 1296.67 694.83C1100.64 585.788 862.877 620.669 732.125 767.52C739.974 746.104 749.951 725.102 762.08 704.855C877.719 511.808 1149 454.035 1367.95 575.828Z" fill="#EAEDF0"/>
<g filter="url(#filter10_f_802_862)">
<path d="M1360.03 589.051C1578.98 710.844 1670.67 952.889 1555.03 1145.94C1542.9 1166.18 1529.02 1185.01 1513.7 1202.27C1580.35 1019.77 1500.62 790.65 1304.59 681.608C1108.56 572.565 862.877 620.669 732.125 767.52C739.974 746.104 749.951 725.102 762.08 704.855C877.719 511.808 1141.08 467.258 1360.03 589.051Z" fill="#EAEDF0"/>
</g>
<g filter="url(#filter11_f_802_862)">
<path d="M1356.07 595.662C1575.02 717.455 1669.54 969.89 1553.9 1162.94C1541.77 1183.18 1527.89 1202.01 1512.57 1219.27C1579.22 1036.77 1504.58 784.039 1308.55 674.996C1112.52 565.954 853.331 638.496 722.579 785.347C730.427 763.931 740.405 742.929 752.533 722.682C868.173 529.635 1137.12 473.869 1356.07 595.662Z" fill="#EAEDF0"/>
</g>
<g filter="url(#filter12_f_802_862)">
<path d="M1356.07 595.662C1575.02 717.455 1669.54 969.89 1553.9 1162.94C1541.77 1183.18 1527.89 1202.01 1512.57 1219.27C1579.22 1036.77 1504.58 784.039 1308.55 674.996C1112.52 565.954 853.331 638.496 722.579 785.347C730.427 763.931 740.405 742.929 752.533 722.682C868.173 529.635 1137.12 473.869 1356.07 595.662Z" fill="#EAEDF0"/>
</g>
<g filter="url(#filter13_f_802_862)">
<path d="M1356.07 595.662C1575.02 717.455 1669.54 969.89 1553.9 1162.94C1541.77 1183.18 1527.89 1202.01 1512.57 1219.27C1579.22 1036.77 1504.58 784.039 1308.55 674.996C1112.52 565.954 853.331 638.496 722.579 785.347C730.427 763.931 740.405 742.929 752.533 722.682C868.173 529.635 1137.12 473.869 1356.07 595.662Z" fill="#EAEDF0"/>
</g>
<g filter="url(#filter14_f_802_862)">
<path d="M1348.3 639.816C1567.25 761.609 1669.54 969.89 1553.9 1162.94C1541.77 1183.18 1527.89 1202.01 1512.57 1219.27C1579.22 1036.77 1522.99 765.632 1321.42 653.51C1068.87 513.026 853.331 638.496 722.579 785.347C730.427 763.931 740.405 742.929 752.533 722.682C868.173 529.635 1129.35 518.023 1348.3 639.816Z" fill="#EAEDF0"/>
</g>
<g filter="url(#filter15_f_802_862)">
<path d="M1348.3 639.816C1567.25 761.609 1714.64 963.574 1599 1156.62C1586.87 1176.87 1498.24 1216.92 1482.92 1234.18C1549.58 1051.68 1522.99 765.632 1321.42 653.51C1068.87 513.025 863.601 670.1 732.849 816.951C752.631 827.954 692.125 750.778 704.254 730.532C819.893 537.484 1129.35 518.022 1348.3 639.816Z" fill="#EAEDF0"/>
</g>
<g filter="url(#filter16_f_802_862)">
<path d="M1348.3 639.816C1567.25 761.609 1714.64 963.574 1599 1156.62C1586.87 1176.87 1498.24 1216.92 1482.92 1234.18C1549.58 1051.68 1522.99 765.632 1321.42 653.51C1068.87 513.025 863.601 670.1 732.849 816.951C752.631 827.954 692.125 750.778 704.254 730.532C819.893 537.484 1129.35 518.022 1348.3 639.816Z" fill="#EAEDF0"/>
</g>
<g filter="url(#filter17_f_802_862)">
<path d="M1348.3 639.816C1567.25 761.609 1714.64 963.574 1599 1156.62C1586.87 1176.87 1498.24 1216.92 1482.92 1234.18C1549.58 1051.68 1522.99 765.632 1321.42 653.51C1068.87 513.025 863.601 670.1 732.849 816.951C752.631 827.954 692.125 750.778 704.254 730.532C819.893 537.484 1129.35 518.022 1348.3 639.816Z" fill="#EAEDF0"/>
</g>
</g>
</g>
<defs>
<filter id="filter0_f_802_862" x="327.534" y="857.574" width="1007.02" height="779.202" filterUnits="userSpaceOnUse" color-interpolation-filters="sRGB">
<feFlood flood-opacity="0" result="BackgroundImageFix"/>
<feBlend mode="normal" in="SourceGraphic" in2="BackgroundImageFix" result="shape"/>
<feGaussianBlur stdDeviation="2" result="effect1_foregroundBlur_802_862"/>
</filter>
<filter id="filter1_f_802_862" x="356.048" y="883.332" width="955.003" height="751.734" filterUnits="userSpaceOnUse" color-interpolation-filters="sRGB">
<feFlood flood-opacity="0" result="BackgroundImageFix"/>
<feBlend mode="normal" in="SourceGraphic" in2="BackgroundImageFix" result="shape"/>
<feGaussianBlur stdDeviation="6" result="effect1_foregroundBlur_802_862"/>
</filter>
<filter id="filter2_f_802_862" x="333.843" y="841.243" width="1011.34" height="807.13" filterUnits="userSpaceOnUse" color-interpolation-filters="sRGB">
<feFlood flood-opacity="0" result="BackgroundImageFix"/>
<feBlend mode="normal" in="SourceGraphic" in2="BackgroundImageFix" result="shape"/>
<feGaussianBlur stdDeviation="18" result="effect1_foregroundBlur_802_862"/>
</filter>
<filter id="filter3_f_802_862" x="317.843" y="825.243" width="1043.34" height="839.13" filterUnits="userSpaceOnUse" color-interpolation-filters="sRGB">
<feFlood flood-opacity="0" result="BackgroundImageFix"/>
<feBlend mode="normal" in="SourceGraphic" in2="BackgroundImageFix" result="shape"/>
<feGaussianBlur stdDeviation="26" result="effect1_foregroundBlur_802_862"/>
</filter>
<filter id="filter4_f_802_862" x="317.843" y="825.243" width="1043.34" height="839.13" filterUnits="userSpaceOnUse" color-interpolation-filters="sRGB">
<feFlood flood-opacity="0" result="BackgroundImageFix"/>
<feBlend mode="normal" in="SourceGraphic" in2="BackgroundImageFix" result="shape"/>
<feGaussianBlur stdDeviation="26" result="effect1_foregroundBlur_802_862"/>
</filter>
<filter id="filter5_f_802_862" x="247.479" y="753.243" width="1185.71" height="952.362" filterUnits="userSpaceOnUse" color-interpolation-filters="sRGB">
<feFlood flood-opacity="0" result="BackgroundImageFix"/>
<feBlend mode="normal" in="SourceGraphic" in2="BackgroundImageFix" result="shape"/>
<feGaussianBlur stdDeviation="62" result="effect1_foregroundBlur_802_862"/>
</filter>
<filter id="filter6_f_802_862" x="255.534" y="785.574" width="1151.02" height="868.941" filterUnits="userSpaceOnUse" color-interpolation-filters="sRGB">
<feFlood flood-opacity="0" result="BackgroundImageFix"/>
<feBlend mode="normal" in="SourceGraphic" in2="BackgroundImageFix" result="shape"/>
<feGaussianBlur stdDeviation="38" result="effect1_foregroundBlur_802_862"/>
</filter>
<filter id="filter7_f_802_862" x="167.534" y="697.574" width="1327.02" height="1044.94" filterUnits="userSpaceOnUse" color-interpolation-filters="sRGB">
<feFlood flood-opacity="0" result="BackgroundImageFix"/>
<feBlend mode="normal" in="SourceGraphic" in2="BackgroundImageFix" result="shape"/>
<feGaussianBlur stdDeviation="82" result="effect1_foregroundBlur_802_862"/>
</filter>
<filter id="filter8_f_802_862" x="87.5341" y="617.575" width="1487.02" height="1204.94" filterUnits="userSpaceOnUse" color-interpolation-filters="sRGB">
<feFlood flood-opacity="0" result="BackgroundImageFix"/>
<feBlend mode="normal" in="SourceGraphic" in2="BackgroundImageFix" result="shape"/>
<feGaussianBlur stdDeviation="122" result="effect1_foregroundBlur_802_862"/>
</filter>
<filter id="filter9_f_802_862" x="698.631" y="508.026" width="944.821" height="730.157" filterUnits="userSpaceOnUse" color-interpolation-filters="sRGB">
<feFlood flood-opacity="0" result="BackgroundImageFix"/>
<feBlend mode="normal" in="SourceGraphic" in2="BackgroundImageFix" result="shape"/>
<feGaussianBlur stdDeviation="2" result="effect1_foregroundBlur_802_862"/>
</filter>
<filter id="filter10_f_802_862" x="720.125" y="509.268" width="897.172" height="705.006" filterUnits="userSpaceOnUse" color-interpolation-filters="sRGB">
<feFlood flood-opacity="0" result="BackgroundImageFix"/>
<feBlend mode="normal" in="SourceGraphic" in2="BackgroundImageFix" result="shape"/>
<feGaussianBlur stdDeviation="6" result="effect1_foregroundBlur_802_862"/>
</filter>
<filter id="filter11_f_802_862" x="686.579" y="495.278" width="952.999" height="759.996" filterUnits="userSpaceOnUse" color-interpolation-filters="sRGB">
<feFlood flood-opacity="0" result="BackgroundImageFix"/>
<feBlend mode="normal" in="SourceGraphic" in2="BackgroundImageFix" result="shape"/>
<feGaussianBlur stdDeviation="18" result="effect1_foregroundBlur_802_862"/>
</filter>
<filter id="filter12_f_802_862" x="670.579" y="479.278" width="984.999" height="791.996" filterUnits="userSpaceOnUse" color-interpolation-filters="sRGB">
<feFlood flood-opacity="0" result="BackgroundImageFix"/>
<feBlend mode="normal" in="SourceGraphic" in2="BackgroundImageFix" result="shape"/>
<feGaussianBlur stdDeviation="26" result="effect1_foregroundBlur_802_862"/>
</filter>
<filter id="filter13_f_802_862" x="670.579" y="479.278" width="984.999" height="791.996" filterUnits="userSpaceOnUse" color-interpolation-filters="sRGB">
<feFlood flood-opacity="0" result="BackgroundImageFix"/>
<feBlend mode="normal" in="SourceGraphic" in2="BackgroundImageFix" result="shape"/>
<feGaussianBlur stdDeviation="26" result="effect1_foregroundBlur_802_862"/>
</filter>
<filter id="filter14_f_802_862" x="598.579" y="436.505" width="1127.43" height="906.769" filterUnits="userSpaceOnUse" color-interpolation-filters="sRGB">
<feFlood flood-opacity="0" result="BackgroundImageFix"/>
<feBlend mode="normal" in="SourceGraphic" in2="BackgroundImageFix" result="shape"/>
<feGaussianBlur stdDeviation="62" result="effect1_foregroundBlur_802_862"/>
</filter>
<filter id="filter15_f_802_862" x="626.631" y="487.472" width="1088.82" height="822.712" filterUnits="userSpaceOnUse" color-interpolation-filters="sRGB">
<feFlood flood-opacity="0" result="BackgroundImageFix"/>
<feBlend mode="normal" in="SourceGraphic" in2="BackgroundImageFix" result="shape"/>
<feGaussianBlur stdDeviation="38" result="effect1_foregroundBlur_802_862"/>
</filter>
<filter id="filter16_f_802_862" x="538.631" y="399.472" width="1264.82" height="998.712" filterUnits="userSpaceOnUse" color-interpolation-filters="sRGB">
<feFlood flood-opacity="0" result="BackgroundImageFix"/>
<feBlend mode="normal" in="SourceGraphic" in2="BackgroundImageFix" result="shape"/>
<feGaussianBlur stdDeviation="82" result="effect1_foregroundBlur_802_862"/>
</filter>
<filter id="filter17_f_802_862" x="458.631" y="319.472" width="1424.82" height="1158.71" filterUnits="userSpaceOnUse" color-interpolation-filters="sRGB">
<feFlood flood-opacity="0" result="BackgroundImageFix"/>
<feBlend mode="normal" in="SourceGraphic" in2="BackgroundImageFix" result="shape"/>
<feGaussianBlur stdDeviation="122" result="effect1_foregroundBlur_802_862"/>
</filter>
<linearGradient id="paint0_linear_802_862" x1="1994.31" y1="1225.02" x2="1994.31" y2="2487.05" gradientUnits="userSpaceOnUse">
<stop stop-color="#C4C4C4" stop-opacity="0"/>
<stop offset="0.380208" stop-color="#C4C4C4"/>
<stop offset="0.578125" stop-color="#C4C4C4"/>
<stop offset="1" stop-color="#C4C4C4" stop-opacity="0"/>
</linearGradient>
<linearGradient id="paint1_linear_802_862" x1="2442.54" y1="625.691" x2="2442.54" y2="1887.72" gradientUnits="userSpaceOnUse">
<stop stop-color="#C4C4C4" stop-opacity="0"/>
<stop offset="0.380208" stop-color="#C4C4C4"/>
<stop offset="0.578125" stop-color="#C4C4C4"/>
<stop offset="1" stop-color="#C4C4C4" stop-opacity="0"/>
</linearGradient>
</defs>
</svg>
