<svg width="1381" height="1213" viewBox="0 0 1381 1213" fill="none" xmlns="http://www.w3.org/2000/svg">
<path d="M919.99 327.73C1124.25 471.416 1174.22 724.802 1031.6 893.636C1016.65 911.343 1000.11 927.48 982.339 941.941C1074.16 776.893 1014.95 560.449 832.075 431.805C649.202 303.162 404.839 306.055 253.224 429.039C264.026 409.675 276.918 390.976 291.876 373.268C434.493 204.434 715.733 184.043 919.99 327.73Z" fill="#E2E8F0"/>
<g filter="url(#filter0_f_784_2854)">
<path d="M910.222 339.294C1114.48 482.98 1174.22 724.802 1031.6 893.636C1016.65 911.343 1000.11 927.48 982.339 941.941C1074.16 776.893 1024.72 548.885 841.843 420.241C658.971 291.598 404.839 306.055 253.224 429.039C264.026 409.675 276.918 390.976 291.876 373.268C434.493 204.434 705.965 195.607 910.222 339.294Z" fill="#E2E8F0"/>
</g>
<g filter="url(#filter1_f_784_2854)">
<path d="M905.338 345.076C1109.59 488.762 1170.79 740.823 1028.17 909.657C1013.21 927.365 996.678 943.502 978.907 957.963C1070.73 792.915 1029.6 543.103 846.728 414.46C663.855 285.816 392.81 321.79 241.196 444.774C251.997 425.41 264.889 406.711 279.847 389.003C422.465 220.169 701.081 201.39 905.338 345.076Z" fill="#E2E8F0"/>
</g>
<g filter="url(#filter2_f_784_2854)">
<path d="M905.338 345.076C1109.59 488.762 1170.79 740.823 1028.17 909.657C1013.21 927.365 996.678 943.502 978.907 957.963C1070.73 792.915 1029.6 543.103 846.728 414.46C663.855 285.816 392.81 321.79 241.196 444.774C251.997 425.41 264.889 406.711 279.847 389.003C422.465 220.169 701.081 201.39 905.338 345.076Z" fill="#E2E8F0"/>
</g>
<g filter="url(#filter3_f_784_2854)">
<path d="M905.338 345.076C1109.59 488.762 1170.79 740.823 1028.17 909.657C1013.21 927.365 996.678 943.502 978.907 957.963C1070.73 792.915 1029.6 543.103 846.728 414.46C663.855 285.816 392.81 321.79 241.196 444.774C251.997 425.41 264.889 406.711 279.847 389.003C422.465 220.169 701.081 201.39 905.338 345.076Z" fill="#E2E8F0"/>
</g>
<g filter="url(#filter4_f_784_2854)">
<path d="M891.543 386.07C1095.8 529.756 1170.79 740.823 1028.17 909.657C1013.21 927.365 996.678 943.502 978.907 957.963C1070.73 792.915 1050.64 527.945 862.601 395.668C626.998 229.931 392.81 321.79 241.196 444.774C251.997 425.41 264.889 406.711 279.847 389.003C422.465 220.169 687.286 242.383 891.543 386.07Z" fill="#E2E8F0"/>
</g>
<g filter="url(#filter5_f_784_2854)">
<path d="M891.542 386.07C1095.8 529.756 1217.1 740.561 1074.48 909.395C1059.52 927.102 964.784 953.905 947.013 968.366C1038.83 803.318 1050.64 527.945 862.601 395.669C626.998 229.932 398.896 353.149 247.282 476.133C265.735 489.115 215.165 408.028 230.123 390.321C372.741 221.486 687.286 242.384 891.542 386.07Z" fill="#E2E8F0"/>
</g>
<g filter="url(#filter6_f_784_2854)">
<path d="M891.542 386.07C1095.8 529.756 1217.1 740.561 1074.48 909.395C1059.52 927.102 964.784 953.905 947.013 968.366C1038.83 803.318 1050.64 527.945 862.601 395.669C626.998 229.932 398.896 353.149 247.282 476.133C265.735 489.115 215.165 408.028 230.123 390.321C372.741 221.486 687.286 242.384 891.542 386.07Z" fill="#E2E8F0"/>
</g>
<g filter="url(#filter7_f_784_2854)">
<path d="M891.542 386.07C1095.8 529.756 1217.1 740.561 1074.48 909.395C1059.52 927.102 964.784 953.905 947.013 968.366C1038.83 803.318 1050.64 527.945 862.601 395.669C626.998 229.932 398.896 353.149 247.282 476.133C265.735 489.115 215.165 408.028 230.123 390.321C372.741 221.486 687.286 242.384 891.542 386.07Z" fill="#E2E8F0"/>
</g>
<defs>
<filter id="filter0_f_784_2854" x="241.224" y="226.536" width="880.508" height="727.406" filterUnits="userSpaceOnUse" color-interpolation-filters="sRGB">
<feFlood flood-opacity="0" result="BackgroundImageFix"/>
<feBlend mode="normal" in="SourceGraphic" in2="BackgroundImageFix" result="shape"/>
<feGaussianBlur stdDeviation="6" result="effect1_foregroundBlur_784_2854"/>
</filter>
<filter id="filter1_f_784_2854" x="205.196" y="212.667" width="936.653" height="781.296" filterUnits="userSpaceOnUse" color-interpolation-filters="sRGB">
<feFlood flood-opacity="0" result="BackgroundImageFix"/>
<feBlend mode="normal" in="SourceGraphic" in2="BackgroundImageFix" result="shape"/>
<feGaussianBlur stdDeviation="18" result="effect1_foregroundBlur_784_2854"/>
</filter>
<filter id="filter2_f_784_2854" x="189.196" y="196.667" width="968.653" height="813.296" filterUnits="userSpaceOnUse" color-interpolation-filters="sRGB">
<feFlood flood-opacity="0" result="BackgroundImageFix"/>
<feBlend mode="normal" in="SourceGraphic" in2="BackgroundImageFix" result="shape"/>
<feGaussianBlur stdDeviation="26" result="effect1_foregroundBlur_784_2854"/>
</filter>
<filter id="filter3_f_784_2854" x="189.196" y="196.667" width="968.653" height="813.296" filterUnits="userSpaceOnUse" color-interpolation-filters="sRGB">
<feFlood flood-opacity="0" result="BackgroundImageFix"/>
<feBlend mode="normal" in="SourceGraphic" in2="BackgroundImageFix" result="shape"/>
<feGaussianBlur stdDeviation="26" result="effect1_foregroundBlur_784_2854"/>
</filter>
<filter id="filter4_f_784_2854" x="117.196" y="146.23" width="1108.55" height="935.732" filterUnits="userSpaceOnUse" color-interpolation-filters="sRGB">
<feFlood flood-opacity="0" result="BackgroundImageFix"/>
<feBlend mode="normal" in="SourceGraphic" in2="BackgroundImageFix" result="shape"/>
<feGaussianBlur stdDeviation="62" result="effect1_foregroundBlur_784_2854"/>
</filter>
<filter id="filter5_f_784_2854" x="151.316" y="194.917" width="1061.15" height="849.448" filterUnits="userSpaceOnUse" color-interpolation-filters="sRGB">
<feFlood flood-opacity="0" result="BackgroundImageFix"/>
<feBlend mode="normal" in="SourceGraphic" in2="BackgroundImageFix" result="shape"/>
<feGaussianBlur stdDeviation="38" result="effect1_foregroundBlur_784_2854"/>
</filter>
<filter id="filter6_f_784_2854" x="63.3157" y="106.917" width="1237.15" height="1025.45" filterUnits="userSpaceOnUse" color-interpolation-filters="sRGB">
<feFlood flood-opacity="0" result="BackgroundImageFix"/>
<feBlend mode="normal" in="SourceGraphic" in2="BackgroundImageFix" result="shape"/>
<feGaussianBlur stdDeviation="82" result="effect1_foregroundBlur_784_2854"/>
</filter>
<filter id="filter7_f_784_2854" x="-16.6843" y="26.9172" width="1397.15" height="1185.45" filterUnits="userSpaceOnUse" color-interpolation-filters="sRGB">
<feFlood flood-opacity="0" result="BackgroundImageFix"/>
<feBlend mode="normal" in="SourceGraphic" in2="BackgroundImageFix" result="shape"/>
<feGaussianBlur stdDeviation="122" result="effect1_foregroundBlur_784_2854"/>
</filter>
</defs>
</svg>
