<svg width="20" height="16" viewBox="0 0 20 16" fill="none" xmlns="http://www.w3.org/2000/svg">
<g clip-path="url(#clip0_843_2259)">
<path d="M15.0227 7.99943C15.0227 10.8499 12.7104 13.1615 9.85995 13.1615C7.00873 13.1615 4.69838 10.8499 4.69838 7.99943C4.69838 5.1494 7.00877 2.83857 9.85995 2.83857C12.7104 2.83853 15.0227 5.1494 15.0227 7.99943ZM9.85995 0C5.4411 0 1.85938 3.58173 1.85938 7.99943C1.85938 12.418 5.4411 16 9.85995 16C14.2778 16 17.8594 12.418 17.8594 7.99943C17.8594 3.58173 14.2778 0 9.85995 0Z" fill="#E1251B"/>
<path d="M19.6904 6.38428H0V9.62032H19.6904V6.38428Z" fill="#000F9F"/>
</g>
<defs>
<clipPath id="clip0_843_2259">
<rect width="19.6904" height="16" fill="white"/>
</clipPath>
</defs>
</svg>
